<svg xmlns="http://www.w3.org/2000/svg" xmlns:xlink="http://www.w3.org/1999/xlink" version="1.1" class="marks" width="374" height="247" viewBox="0 0 374 247"><rect width="374" height="247" fill="white"/><g fill="none" stroke-miterlimit="10" transform="translate(47,10)"><g class="mark-group role-frame root" role="graphics-object" aria-roledescription="group mark container"><g transform="translate(0,0)"><path class="background" aria-hidden="true" d="M0.5,0.5h320v200h-320Z" stroke="#ddd"/><g><g class="mark-group role-axis" role="graphics-symbol" aria-roledescription="axis" aria-label="X-axis titled 'Incubation period (days)' for a linear scale with values from 0 to 12"><g transform="translate(0.5,200.5)"><path class="background" aria-hidden="true" d="M0,0h0v0h0Z" pointer-events="none"/><g><g class="mark-rule role-axis-tick" pointer-events="none"><line transform="translate(0,0)" x2="0" y2="5" stroke="#888" stroke-width="1" opacity="1"/><line transform="translate(53,0)" x2="0" y2="5" stroke="#888" stroke-width="1" opacity="1"/><line transform="translate(107,0)" x2="0" y2="5" stroke="#888" stroke-width="1" opacity="1"/><line transform="translate(160,0)" x2="0" y2="5" stroke="#888" stroke-width="1" opacity="1"/><line transform="translate(213,0)" x2="0" y2="5" stroke="#888" stroke-width="1" opacity="1"/><line transform="translate(267,0)" x2="0" y2="5" stroke="#888" stroke-width="1" opacity="1"/><line transform="translate(320,0)" x2="0" y2="5" stroke="#888" stroke-width="1" opacity="1"/></g><g class="mark-text role-axis-label" pointer-events="none"><text text-anchor="start" transform="translate(0,15)" font-family="sans-serif" font-size="10px" fill="#000" opacity="1">0</text><text text-anchor="middle" transform="translate(53.33333333333333,15)" font-family="sans-serif" font-size="10px" fill="#000" opacity="1">2</text><text text-anchor="middle" transform="translate(106.66666666666666,15)" font-family="sans-serif" font-size="10px" fill="#000" opacity="1">4</text><text text-anchor="middle" transform="translate(160,15)" font-family="sans-serif" font-size="10px" fill="#000" opacity="1">6</text><text text-anchor="middle" transform="translate(213.33333333333331,15)" font-family="sans-serif" font-size="10px" fill="#000" opacity="1">8</text><text text-anchor="middle" transform="translate(266.6666666666667,15)" font-family="sans-serif" font-size="10px" fill="#000" opacity="1">10</text><text text-anchor="end" transform="translate(320,15)" font-family="sans-serif" font-size="10px" fill="#000" opacity="1">12</text></g><g class="mark-rule role-axis-domain" pointer-events="none"><line transform="translate(0,0)" x2="320" y2="0" stroke="#888" stroke-width="1" opacity="1"/></g><g class="mark-text role-axis-title" pointer-events="none"><text text-anchor="middle" transform="translate(160,30)" font-family="sans-serif" font-size="11px" font-weight="bold" fill="#000" opacity="1">Incubation period (days)</text></g></g><path class="foreground" aria-hidden="true" d="" pointer-events="none" display="none"/></g></g><g class="mark-group role-axis" role="graphics-symbol" aria-roledescription="axis" aria-label="Y-axis titled 'Probability density' for a linear scale with values from 0.00 to 0.10"><g transform="translate(0.5,0.5)"><path class="background" aria-hidden="true" d="M0,0h0v0h0Z" pointer-events="none"/><g><g class="mark-rule role-axis-tick" pointer-events="none"><line transform="translate(0,200)" x2="-5" y2="0" stroke="#888" stroke-width="1" opacity="1"/><line transform="translate(0,160)" x2="-5" y2="0" stroke="#888" stroke-width="1" opacity="1"/><line transform="translate(0,120)" x2="-5" y2="0" stroke="#888" stroke-width="1" opacity="1"/><line transform="translate(0,80)" x2="-5" y2="0" stroke="#888" stroke-width="1" opacity="1"/><line transform="translate(0,40)" x2="-5" y2="0" stroke="#888" stroke-width="1" opacity="1"/><line transform="translate(0,0)" x2="-5" y2="0" stroke="#888" stroke-width="1" opacity="1"/></g><g class="mark-text role-axis-label" pointer-events="none"><text text-anchor="end" transform="translate(-7,203)" font-family="sans-serif" font-size="10px" fill="#000" opacity="1">0.00</text><text text-anchor="end" transform="translate(-7,163)" font-family="sans-serif" font-size="10px" fill="#000" opacity="1">0.02</text><text text-anchor="end" transform="translate(-7,123.00000000000001)" font-family="sans-serif" font-size="10px" fill="#000" opacity="1">0.04</text><text text-anchor="end" transform="translate(-7,83)" font-family="sans-serif" font-size="10px" fill="#000" opacity="1">0.06</text><text text-anchor="end" transform="translate(-7,43.000000000000014)" font-family="sans-serif" font-size="10px" fill="#000" opacity="1">0.08</text><text text-anchor="end" transform="translate(-7,3)" font-family="sans-serif" font-size="10px" fill="#000" opacity="1">0.10</text></g><g class="mark-rule role-axis-domain" pointer-events="none"><line transform="translate(0,200)" x2="0" y2="-200" stroke="#888" stroke-width="1" opacity="1"/></g><g class="mark-text role-axis-title" pointer-events="none"><text text-anchor="middle" transform="translate(-30.462890625,100) rotate(-90) translate(0,-2)" font-family="sans-serif" font-size="11px" font-weight="bold" fill="#000" opacity="1">Probability density</text></g></g><path class="foreground" aria-hidden="true" d="" pointer-events="none" display="none"/></g></g><g class="mark-area role-mark layer_0_layer_0_marks" clip-path="url(#clip4)" role="graphics-object" aria-roledescription="area mark container"><path aria-label="Incubation period (days): 0.2; lower: 0; upper: 0.00037" role="graphics-symbol" aria-roledescription="area mark" d="M5.333,200C7.111,200.001,8.889,200.002,10.667,200C12.444,199.998,14.222,199.993,16,199.96C17.778,199.927,19.556,199.864,21.333,199.74C23.111,199.616,24.889,199.429,26.667,199.16C28.444,198.891,30.222,198.54,32,198.1C33.778,197.66,35.556,197.133,37.333,196.54C39.111,195.947,40.889,195.29,42.667,194.58C44.444,193.87,46.222,193.106,48,192.32C49.778,191.534,51.556,190.724,53.333,189.9C55.111,189.076,56.889,188.237,58.667,187.44C60.444,186.643,62.222,185.886,64,185.14C65.778,184.394,67.556,183.657,69.333,182.98C71.111,182.303,72.889,181.686,74.667,181.1C76.444,180.514,78.222,179.961,80,179.48C81.778,178.999,83.556,178.591,85.333,178.2C87.111,177.809,88.889,177.436,90.667,177.12C92.444,176.804,94.222,176.547,96,176.32C97.778,176.093,99.556,175.897,101.333,175.72C103.111,175.543,104.889,175.386,106.667,175.26C108.444,175.134,110.222,175.038,112,174.98C113.778,174.922,115.556,174.901,117.333,174.88C119.111,174.859,120.889,174.836,122.667,174.84C124.444,174.844,126.222,174.873,128,174.9C129.778,174.927,131.556,174.95,133.333,175C135.111,175.05,136.889,175.125,138.667,175.2C140.444,175.275,142.222,175.35,144,175.44C145.778,175.53,147.556,175.636,149.333,175.74C151.111,175.844,152.889,175.947,154.667,176.06C156.444,176.173,158.222,176.296,160,176.42C161.778,176.544,163.556,176.671,165.333,176.8C167.111,176.929,168.889,177.062,170.667,177.2C172.444,177.338,174.222,177.48,176,177.62C177.778,177.76,179.556,177.897,181.333,178.04C183.111,178.183,184.889,178.331,186.667,178.48C188.444,178.629,190.222,178.778,192,178.92C193.778,179.062,195.556,179.196,197.333,179.34C199.111,179.484,200.889,179.636,202.667,179.78C204.444,179.924,206.222,180.058,208,180.2C209.778,180.342,211.556,180.492,213.333,180.64C215.111,180.788,216.889,180.933,218.667,181.08C220.444,181.227,222.222,181.377,224,181.52C225.778,181.663,227.556,181.798,229.333,181.94C231.111,182.082,232.889,182.23,234.667,182.38C236.444,182.53,238.222,182.681,240,182.82C241.778,182.959,243.556,183.086,245.333,183.22C247.111,183.354,248.889,183.493,250.667,183.64C252.444,183.787,254.222,183.94,256,184.08C257.778,184.22,259.556,184.346,261.333,184.48C263.111,184.614,264.889,184.758,266.667,184.9C268.444,185.042,270.222,185.184,272,185.32C273.778,185.456,275.556,185.587,277.333,185.72C279.111,185.853,280.889,185.986,282.667,186.12C284.444,186.254,286.222,186.387,288,186.52C289.778,186.653,291.556,186.786,293.333,186.92C295.111,187.054,296.889,187.19,298.667,187.32C300.444,187.45,302.222,187.574,304,187.7C305.778,187.826,307.556,187.952,309.333,188.08C311.111,188.208,312.889,188.336,314.667,188.46C316.444,188.584,318.222,188.702,320,188.82L320,182.5C318.222,182.343,316.444,182.186,314.667,182.02C312.889,181.854,311.111,181.679,309.333,181.5C307.556,181.321,305.778,181.139,304,180.96C302.222,180.781,300.444,180.606,298.667,180.42C296.889,180.234,295.111,180.037,293.333,179.84C291.556,179.643,289.778,179.447,288,179.24C286.222,179.033,284.444,178.814,282.667,178.6C280.889,178.386,279.111,178.178,277.333,177.96C275.556,177.742,273.778,177.515,272,177.28C270.222,177.045,268.444,176.804,266.667,176.56C264.889,176.316,263.111,176.07,261.333,175.82C259.556,175.57,257.778,175.315,256,175.06C254.222,174.805,252.444,174.55,250.667,174.28C248.889,174.01,247.111,173.724,245.333,173.44C243.556,173.156,241.778,172.874,240,172.58C238.222,172.286,236.444,171.981,234.667,171.68C232.889,171.379,231.111,171.082,229.333,170.78C227.556,170.478,225.778,170.169,224,169.86C222.222,169.551,220.444,169.241,218.667,168.92C216.889,168.599,215.111,168.266,213.333,167.94C211.556,167.614,209.778,167.293,208,166.96C206.222,166.627,204.444,166.281,202.667,165.94C200.889,165.599,199.111,165.263,197.333,164.92C195.556,164.577,193.778,164.226,192,163.88C190.222,163.534,188.444,163.192,186.667,162.84C184.889,162.488,183.111,162.126,181.333,161.78C179.556,161.434,177.778,161.104,176,160.76C174.222,160.416,172.444,160.058,170.667,159.72C168.889,159.382,167.111,159.063,165.333,158.74C163.556,158.417,161.778,158.09,160,157.76C158.222,157.43,156.444,157.097,154.667,156.78C152.889,156.463,151.111,156.16,149.333,155.88C147.556,155.6,145.778,155.341,144,155.08C142.222,154.819,140.444,154.554,138.667,154.32C136.889,154.086,135.111,153.882,133.333,153.68C131.556,153.478,129.778,153.278,128,153.1C126.222,152.922,124.444,152.765,122.667,152.62C120.889,152.475,119.111,152.344,117.333,152.24C115.556,152.136,113.778,152.061,112,152.02C110.222,151.979,108.444,151.971,106.667,151.98C104.889,151.989,103.111,152.014,101.333,152.06C99.556,152.106,97.778,152.173,96,152.3C94.222,152.427,92.444,152.616,90.667,152.78C88.889,152.944,87.111,153.084,85.333,153.3C83.556,153.516,81.778,153.807,80,154.12C78.222,154.433,76.444,154.768,74.667,155.12C72.889,155.472,71.111,155.842,69.333,156.3C67.556,156.758,65.778,157.303,64,157.86C62.222,158.417,60.444,158.987,58.667,159.62C56.889,160.253,55.111,160.95,53.333,161.72C51.556,162.49,49.778,163.335,48,164.22C46.222,165.105,44.444,166.031,42.667,167.08C40.889,168.129,39.111,169.3,37.333,170.54C35.556,171.78,33.778,173.089,32,174.52C30.222,175.951,28.444,177.506,26.667,179.1C24.889,180.694,23.111,182.328,21.333,184.06C19.556,185.792,17.778,187.622,16,189.54C14.222,191.458,12.444,193.465,10.667,195.1C8.889,196.735,7.111,197.997,5.333,199.26Z" fill="grey" opacity="0.1"/></g><g class="mark-line role-mark layer_0_layer_1_marks" role="graphics-object" aria-roledescription="line mark container"><path aria-label="Incubation period (days): 0.2; Probability density: 0" role="graphics-symbol" aria-roledescription="line mark" d="M5.333,200C7.111,199.986,8.889,199.971,10.667,199.82C12.444,199.669,14.222,199.381,16,198.92C17.778,198.459,19.556,197.826,21.333,197.04C23.111,196.254,24.889,195.316,26.667,194.3C28.444,193.284,30.222,192.19,32,191.06C33.778,189.93,35.556,188.763,37.333,187.6C39.111,186.437,40.889,185.279,42.667,184.16C44.444,183.041,46.222,181.962,48,180.92C49.778,179.878,51.556,178.873,53.333,177.92C55.111,176.967,56.889,176.064,58.667,175.22C60.444,174.376,62.222,173.589,64,172.86C65.778,172.131,67.556,171.459,69.333,170.84C71.111,170.221,72.889,169.657,74.667,169.14C76.444,168.623,78.222,168.155,80,167.74C81.778,167.325,83.556,166.964,85.333,166.64C87.111,166.316,88.889,166.029,90.667,165.78C92.444,165.531,94.222,165.321,96,165.14C97.778,164.959,99.556,164.807,101.333,164.7C103.111,164.593,104.889,164.531,106.667,164.48C108.444,164.429,110.222,164.388,112,164.38C113.778,164.372,115.556,164.396,117.333,164.44C119.111,164.484,120.889,164.548,122.667,164.62C124.444,164.692,126.222,164.772,128,164.88C129.778,164.988,131.556,165.125,133.333,165.26C135.111,165.395,136.889,165.528,138.667,165.68C140.444,165.832,142.222,166.004,144,166.18C145.778,166.356,147.556,166.535,149.333,166.72C151.111,166.905,152.889,167.095,154.667,167.3C156.444,167.505,158.222,167.725,160,167.94C161.778,168.155,163.556,168.365,165.333,168.58C167.111,168.795,168.889,169.015,170.667,169.24C172.444,169.465,174.222,169.694,176,169.92C177.778,170.146,179.556,170.37,181.333,170.6C183.111,170.83,184.889,171.065,186.667,171.3C188.444,171.535,190.222,171.771,192,172C193.778,172.229,195.556,172.451,197.333,172.68C199.111,172.909,200.889,173.143,202.667,173.38C204.444,173.617,206.222,173.855,208,174.08C209.778,174.305,211.556,174.517,213.333,174.74C215.111,174.963,216.889,175.196,218.667,175.42C220.444,175.644,222.222,175.86,224,176.08C225.778,176.3,227.556,176.523,229.333,176.74C231.111,176.957,232.889,177.167,234.667,177.38C236.444,177.593,238.222,177.809,240,178.02C241.778,178.231,243.556,178.438,245.333,178.64C247.111,178.842,248.889,179.038,250.667,179.24C252.444,179.442,254.222,179.648,256,179.84C257.778,180.032,259.556,180.21,261.333,180.4C263.111,180.59,264.889,180.791,266.667,180.98C268.444,181.169,270.222,181.346,272,181.52C273.778,181.694,275.556,181.866,277.333,182.04C279.111,182.214,280.889,182.39,282.667,182.56C284.444,182.73,286.222,182.892,288,183.06C289.778,183.228,291.556,183.4,293.333,183.56C295.111,183.72,296.889,183.869,298.667,184.02C300.444,184.171,302.222,184.324,304,184.48C305.778,184.636,307.556,184.793,309.333,184.94C311.111,185.087,312.889,185.222,314.667,185.36C316.444,185.498,318.222,185.639,320,185.78" stroke="grey" stroke-width="2" stroke-dasharray="4,3"/></g><g class="mark-line role-mark layer_0_layer_2_marks" role="graphics-object" aria-roledescription="line mark container"><path aria-label="Incubation period (days): 0.2; lower: 0" role="graphics-symbol" aria-roledescription="line mark" d="M5.333,200C7.111,200.001,8.889,200.002,10.667,200C12.444,199.998,14.222,199.993,16,199.96C17.778,199.927,19.556,199.864,21.333,199.74C23.111,199.616,24.889,199.429,26.667,199.16C28.444,198.891,30.222,198.54,32,198.1C33.778,197.66,35.556,197.133,37.333,196.54C39.111,195.947,40.889,195.29,42.667,194.58C44.444,193.87,46.222,193.106,48,192.32C49.778,191.534,51.556,190.724,53.333,189.9C55.111,189.076,56.889,188.237,58.667,187.44C60.444,186.643,62.222,185.886,64,185.14C65.778,184.394,67.556,183.657,69.333,182.98C71.111,182.303,72.889,181.686,74.667,181.1C76.444,180.514,78.222,179.961,80,179.48C81.778,178.999,83.556,178.591,85.333,178.2C87.111,177.809,88.889,177.436,90.667,177.12C92.444,176.804,94.222,176.547,96,176.32C97.778,176.093,99.556,175.897,101.333,175.72C103.111,175.543,104.889,175.386,106.667,175.26C108.444,175.134,110.222,175.038,112,174.98C113.778,174.922,115.556,174.901,117.333,174.88C119.111,174.859,120.889,174.836,122.667,174.84C124.444,174.844,126.222,174.873,128,174.9C129.778,174.927,131.556,174.95,133.333,175C135.111,175.05,136.889,175.125,138.667,175.2C140.444,175.275,142.222,175.35,144,175.44C145.778,175.53,147.556,175.636,149.333,175.74C151.111,175.844,152.889,175.947,154.667,176.06C156.444,176.173,158.222,176.296,160,176.42C161.778,176.544,163.556,176.671,165.333,176.8C167.111,176.929,168.889,177.062,170.667,177.2C172.444,177.338,174.222,177.48,176,177.62C177.778,177.76,179.556,177.897,181.333,178.04C183.111,178.183,184.889,178.331,186.667,178.48C188.444,178.629,190.222,178.778,192,178.92C193.778,179.062,195.556,179.196,197.333,179.34C199.111,179.484,200.889,179.636,202.667,179.78C204.444,179.924,206.222,180.058,208,180.2C209.778,180.342,211.556,180.492,213.333,180.64C215.111,180.788,216.889,180.933,218.667,181.08C220.444,181.227,222.222,181.377,224,181.52C225.778,181.663,227.556,181.798,229.333,181.94C231.111,182.082,232.889,182.23,234.667,182.38C236.444,182.53,238.222,182.681,240,182.82C241.778,182.959,243.556,183.086,245.333,183.22C247.111,183.354,248.889,183.493,250.667,183.64C252.444,183.787,254.222,183.94,256,184.08C257.778,184.22,259.556,184.346,261.333,184.48C263.111,184.614,264.889,184.758,266.667,184.9C268.444,185.042,270.222,185.184,272,185.32C273.778,185.456,275.556,185.587,277.333,185.72C279.111,185.853,280.889,185.986,282.667,186.12C284.444,186.254,286.222,186.387,288,186.52C289.778,186.653,291.556,186.786,293.333,186.92C295.111,187.054,296.889,187.19,298.667,187.32C300.444,187.45,302.222,187.574,304,187.7C305.778,187.826,307.556,187.952,309.333,188.08C311.111,188.208,312.889,188.336,314.667,188.46C316.444,188.584,318.222,188.702,320,188.82" stroke="grey" stroke-width="0.3"/></g><g class="mark-line role-mark layer_0_layer_3_marks" role="graphics-object" aria-roledescription="line mark container"><path aria-label="Incubation period (days): 0.2; upper: 0.00037" role="graphics-symbol" aria-roledescription="line mark" d="M5.333,199.26C7.111,197.997,8.889,196.735,10.667,195.1C12.444,193.465,14.222,191.458,16,189.54C17.778,187.622,19.556,185.792,21.333,184.06C23.111,182.328,24.889,180.694,26.667,179.1C28.444,177.506,30.222,175.951,32,174.52C33.778,173.089,35.556,171.78,37.333,170.54C39.111,169.3,40.889,168.129,42.667,167.08C44.444,166.031,46.222,165.105,48,164.22C49.778,163.335,51.556,162.49,53.333,161.72C55.111,160.95,56.889,160.253,58.667,159.62C60.444,158.987,62.222,158.417,64,157.86C65.778,157.303,67.556,156.758,69.333,156.3C71.111,155.842,72.889,155.472,74.667,155.12C76.444,154.768,78.222,154.433,80,154.12C81.778,153.807,83.556,153.516,85.333,153.3C87.111,153.084,88.889,152.944,90.667,152.78C92.444,152.616,94.222,152.427,96,152.3C97.778,152.173,99.556,152.106,101.333,152.06C103.111,152.014,104.889,151.989,106.667,151.98C108.444,151.971,110.222,151.979,112,152.02C113.778,152.061,115.556,152.136,117.333,152.24C119.111,152.344,120.889,152.475,122.667,152.62C124.444,152.765,126.222,152.922,128,153.1C129.778,153.278,131.556,153.478,133.333,153.68C135.111,153.882,136.889,154.086,138.667,154.32C140.444,154.554,142.222,154.819,144,155.08C145.778,155.341,147.556,155.6,149.333,155.88C151.111,156.16,152.889,156.463,154.667,156.78C156.444,157.097,158.222,157.43,160,157.76C161.778,158.09,163.556,158.417,165.333,158.74C167.111,159.063,168.889,159.382,170.667,159.72C172.444,160.058,174.222,160.416,176,160.76C177.778,161.104,179.556,161.434,181.333,161.78C183.111,162.126,184.889,162.488,186.667,162.84C188.444,163.192,190.222,163.534,192,163.88C193.778,164.226,195.556,164.577,197.333,164.92C199.111,165.263,200.889,165.599,202.667,165.94C204.444,166.281,206.222,166.627,208,166.96C209.778,167.293,211.556,167.614,213.333,167.94C215.111,168.266,216.889,168.599,218.667,168.92C220.444,169.241,222.222,169.551,224,169.86C225.778,170.169,227.556,170.478,229.333,170.78C231.111,171.082,232.889,171.379,234.667,171.68C236.444,171.981,238.222,172.286,240,172.58C241.778,172.874,243.556,173.156,245.333,173.44C247.111,173.724,248.889,174.01,250.667,174.28C252.444,174.55,254.222,174.805,256,175.06C257.778,175.315,259.556,175.57,261.333,175.82C263.111,176.07,264.889,176.316,266.667,176.56C268.444,176.804,270.222,177.045,272,177.28C273.778,177.515,275.556,177.742,277.333,177.96C279.111,178.178,280.889,178.386,282.667,178.6C284.444,178.814,286.222,179.033,288,179.24C289.778,179.447,291.556,179.643,293.333,179.84C295.111,180.037,296.889,180.234,298.667,180.42C300.444,180.606,302.222,180.781,304,180.96C305.778,181.139,307.556,181.321,309.333,181.5C311.111,181.679,312.889,181.854,314.667,182.02C316.444,182.186,318.222,182.343,320,182.5" stroke="grey" stroke-width="0.3"/></g><g class="mark-area role-mark layer_1_layer_0_marks" clip-path="url(#clip5)" role="graphics-object" aria-roledescription="area mark container"><path aria-label="Incubation period (days): 0.2; lower: 0; upper: 0.0001" role="graphics-symbol" aria-roledescription="area mark" d="M5.333,200C7.111,200,8.889,200,10.667,200C12.444,200,14.222,200,16,200C17.778,200,19.556,199.999,21.333,200C23.111,200.001,24.889,200.002,26.667,200C28.444,199.998,30.222,199.993,32,199.98C33.778,199.967,35.556,199.946,37.333,199.82C39.111,199.694,40.889,199.462,42.667,198.8C44.444,198.138,46.222,197.047,48,195.1C49.778,193.153,51.556,190.35,53.333,186.2C55.111,182.05,56.889,176.554,58.667,169.92C60.444,163.286,62.222,155.513,64,147.5C65.778,139.487,67.556,131.232,69.333,124.24C71.111,117.248,72.889,111.518,74.667,107.4C76.444,103.282,78.222,100.778,80,99.46C81.778,98.142,83.556,98.012,85.333,98.62C87.111,99.228,88.889,100.576,90.667,102.36C92.444,104.144,94.222,106.366,96,108.84C97.778,111.314,99.556,114.039,101.333,116.92C103.111,119.801,104.889,122.836,106.667,125.92C108.444,129.004,110.222,132.136,112,135.24C113.778,138.344,115.556,141.419,117.333,144.56C119.111,147.701,120.889,150.907,122.667,154C124.444,157.093,126.222,160.073,128,162.9C129.778,165.727,131.556,168.401,133.333,170.9C135.111,173.399,136.889,175.722,138.667,177.82C140.444,179.918,142.222,181.79,144,183.48C145.778,185.17,147.556,186.677,149.333,188C151.111,189.323,152.889,190.46,154.667,191.46C156.444,192.46,158.222,193.322,160,194.06C161.778,194.798,163.556,195.413,165.333,195.94C167.111,196.467,168.889,196.905,170.667,197.28C172.444,197.655,174.222,197.967,176,198.22C177.778,198.473,179.556,198.667,181.333,198.84C183.111,199.013,184.889,199.165,186.667,199.28C188.444,199.395,190.222,199.471,192,199.54C193.778,199.609,195.556,199.669,197.333,199.72C199.111,199.771,200.889,199.812,202.667,199.84C204.444,199.868,206.222,199.885,208,199.9C209.778,199.915,211.556,199.93,213.333,199.94C215.111,199.95,216.889,199.954,218.667,199.96C220.444,199.966,222.222,199.972,224,199.98C225.778,199.988,227.556,199.997,229.333,200C231.111,200.003,232.889,200.001,234.667,200C236.444,199.999,238.222,200,240,200C241.778,200,243.556,200,245.333,200C247.111,200,248.889,200,250.667,200C252.444,200,254.222,200,256,200C257.778,200,259.556,200,261.333,200C263.111,200,264.889,200,266.667,200C268.444,200,270.222,200,272,200C273.778,200,275.556,200,277.333,200C279.111,200,280.889,200,282.667,200C284.444,200,286.222,200,288,200C289.778,200,291.556,200,293.333,200C295.111,200,296.889,200,298.667,200C300.444,200,302.222,200,304,200C305.778,200,307.556,200,309.333,200C311.111,200,312.889,200,314.667,200C316.444,200,318.222,200,320,200L320,199.38C318.222,199.344,316.444,199.308,314.667,199.28C312.889,199.252,311.111,199.233,309.333,199.2C307.556,199.167,305.778,199.121,304,199.08C302.222,199.039,300.444,199.003,298.667,198.96C296.889,198.917,295.111,198.866,293.333,198.82C291.556,198.774,289.778,198.731,288,198.68C286.222,198.629,284.444,198.569,282.667,198.5C280.889,198.431,279.111,198.352,277.333,198.28C275.556,198.208,273.778,198.143,272,198.06C270.222,197.977,268.444,197.877,266.667,197.78C264.889,197.683,263.111,197.59,261.333,197.48C259.556,197.37,257.778,197.243,256,197.12C254.222,196.997,252.444,196.878,250.667,196.74C248.889,196.602,247.111,196.444,245.333,196.28C243.556,196.116,241.778,195.946,240,195.76C238.222,195.574,236.444,195.372,234.667,195.16C232.889,194.948,231.111,194.725,229.333,194.48C227.556,194.235,225.778,193.966,224,193.68C222.222,193.394,220.444,193.091,218.667,192.76C216.889,192.429,215.111,192.07,213.333,191.68C211.556,191.29,209.778,190.868,208,190.42C206.222,189.972,204.444,189.497,202.667,188.98C200.889,188.463,199.111,187.902,197.333,187.3C195.556,186.698,193.778,186.054,192,185.36C190.222,184.666,188.444,183.92,186.667,183.12C184.889,182.32,183.111,181.465,181.333,180.54C179.556,179.615,177.778,178.62,176,177.52C174.222,176.42,172.444,175.214,170.667,173.92C168.889,172.626,167.111,171.242,165.333,169.72C163.556,168.198,161.778,166.536,160,164.72C158.222,162.904,156.444,160.934,154.667,158.78C152.889,156.626,151.111,154.29,149.333,151.68C147.556,149.07,145.778,146.187,144,143.14C142.222,140.093,140.444,136.883,138.667,133.38C136.889,129.877,135.111,126.083,133.333,121.96C131.556,117.837,129.778,113.387,128,108.72C126.222,104.053,124.444,99.169,122.667,94.06C120.889,88.951,119.111,83.616,117.333,77.98C115.556,72.344,113.778,66.406,112,60.6C110.222,54.794,108.444,49.121,106.667,43.66C104.889,38.199,103.111,32.949,101.333,28.1C99.556,23.251,97.778,18.802,96,15.34C94.222,11.878,92.444,9.404,90.667,7.88C88.889,6.356,87.111,5.784,85.333,6.26C83.556,6.736,81.778,8.26,80,10.58C78.222,12.9,76.444,16.016,74.667,19.78C72.889,23.544,71.111,27.956,69.333,32.62C67.556,37.284,65.778,42.202,64,47.5C62.222,52.798,60.444,58.477,58.667,64.4C56.889,70.323,55.111,76.489,53.333,82.9C51.556,89.311,49.778,95.967,48,102.88C46.222,109.793,44.444,116.961,42.667,123.94C40.889,130.919,39.111,137.707,37.333,144.28C35.556,150.853,33.778,157.21,32,162.8C30.222,168.39,28.444,173.214,26.667,177.36C24.889,181.506,23.111,184.974,21.333,187.8C19.556,190.626,17.778,192.812,16,194.52C14.222,196.228,12.444,197.46,10.667,198.26C8.889,199.06,7.111,199.43,5.333,199.8Z" fill="#cb181d" opacity="0.1"/></g><g class="mark-line role-mark layer_1_layer_1_marks" role="graphics-object" aria-roledescription="line mark container"><path aria-label="Incubation period (days): 0.2; median: 0" role="graphics-symbol" aria-roledescription="line mark" d="M5.333,200C7.111,200,8.889,199.999,10.667,200C12.444,200.001,14.222,200.003,16,200C17.778,199.997,19.556,199.988,21.333,199.92C23.111,199.852,24.889,199.725,26.667,199.3C28.444,198.875,30.222,198.152,32,196.74C33.778,195.328,35.556,193.225,37.333,190.14C39.111,187.055,40.889,182.986,42.667,177.96C44.444,172.934,46.222,166.952,48,160.3C49.778,153.648,51.556,146.326,53.333,138.84C55.111,131.354,56.889,123.703,58.667,116.32C60.444,108.937,62.222,101.822,64,95.34C65.778,88.858,67.556,83.009,69.333,77.9C71.111,72.791,72.889,68.42,74.667,65.06C76.444,61.7,78.222,59.35,80,57.86C81.778,56.37,83.556,55.741,85.333,56.1C87.111,56.459,88.889,57.808,90.667,59.82C92.444,61.832,94.222,64.509,96,67.64C97.778,70.771,99.556,74.357,101.333,78.22C103.111,82.083,104.889,86.223,106.667,90.46C108.444,94.697,110.222,99.031,112,103.36C113.778,107.689,115.556,112.014,117.333,116.22C119.111,120.426,120.889,124.512,122.667,128.4C124.444,132.288,126.222,135.979,128,139.48C129.778,142.981,131.556,146.291,133.333,149.38C135.111,152.469,136.889,155.338,138.667,158.02C140.444,160.702,142.222,163.197,144,165.5C145.778,167.803,147.556,169.912,149.333,171.86C151.111,173.808,152.889,175.594,154.667,177.22C156.444,178.846,158.222,180.311,160,181.66C161.778,183.009,163.556,184.242,165.333,185.36C167.111,186.478,168.889,187.481,170.667,188.38C172.444,189.279,174.222,190.075,176,190.8C177.778,191.525,179.556,192.181,181.333,192.76C183.111,193.339,184.889,193.842,186.667,194.3C188.444,194.758,190.222,195.171,192,195.54C193.778,195.909,195.556,196.233,197.333,196.52C199.111,196.807,200.889,197.056,202.667,197.28C204.444,197.504,206.222,197.702,208,197.88C209.778,198.058,211.556,198.217,213.333,198.36C215.111,198.503,216.889,198.631,218.667,198.74C220.444,198.849,222.222,198.939,224,199.02C225.778,199.101,227.556,199.173,229.333,199.24C231.111,199.307,232.889,199.37,234.667,199.42C236.444,199.47,238.222,199.506,240,199.54C241.778,199.574,243.556,199.605,245.333,199.64C247.111,199.675,248.889,199.712,250.667,199.74C252.444,199.768,254.222,199.785,256,199.8C257.778,199.815,259.556,199.826,261.333,199.84C263.111,199.854,264.889,199.87,266.667,199.88C268.444,199.89,270.222,199.894,272,199.9C273.778,199.906,275.556,199.913,277.333,199.92C279.111,199.927,280.889,199.932,282.667,199.94C284.444,199.948,286.222,199.958,288,199.96C289.778,199.962,291.556,199.957,293.333,199.96C295.111,199.963,296.889,199.976,298.667,199.98C300.444,199.984,302.222,199.981,304,199.98C305.778,199.979,307.556,199.981,309.333,199.98C311.111,199.979,312.889,199.977,314.667,199.98C316.444,199.983,318.222,199.992,320,200" stroke="#cb181d" stroke-width="2"/></g><g class="mark-line role-mark layer_1_layer_2_marks" role="graphics-object" aria-roledescription="line mark container"><path aria-label="Incubation period (days): 0.2; lower: 0" role="graphics-symbol" aria-roledescription="line mark" d="M5.333,200C7.111,200,8.889,200,10.667,200C12.444,200,14.222,200,16,200C17.778,200,19.556,199.999,21.333,200C23.111,200.001,24.889,200.002,26.667,200C28.444,199.998,30.222,199.993,32,199.98C33.778,199.967,35.556,199.946,37.333,199.82C39.111,199.694,40.889,199.462,42.667,198.8C44.444,198.138,46.222,197.047,48,195.1C49.778,193.153,51.556,190.35,53.333,186.2C55.111,182.05,56.889,176.554,58.667,169.92C60.444,163.286,62.222,155.513,64,147.5C65.778,139.487,67.556,131.232,69.333,124.24C71.111,117.248,72.889,111.518,74.667,107.4C76.444,103.282,78.222,100.778,80,99.46C81.778,98.142,83.556,98.012,85.333,98.62C87.111,99.228,88.889,100.576,90.667,102.36C92.444,104.144,94.222,106.366,96,108.84C97.778,111.314,99.556,114.039,101.333,116.92C103.111,119.801,104.889,122.836,106.667,125.92C108.444,129.004,110.222,132.136,112,135.24C113.778,138.344,115.556,141.419,117.333,144.56C119.111,147.701,120.889,150.907,122.667,154C124.444,157.093,126.222,160.073,128,162.9C129.778,165.727,131.556,168.401,133.333,170.9C135.111,173.399,136.889,175.722,138.667,177.82C140.444,179.918,142.222,181.79,144,183.48C145.778,185.17,147.556,186.677,149.333,188C151.111,189.323,152.889,190.46,154.667,191.46C156.444,192.46,158.222,193.322,160,194.06C161.778,194.798,163.556,195.413,165.333,195.94C167.111,196.467,168.889,196.905,170.667,197.28C172.444,197.655,174.222,197.967,176,198.22C177.778,198.473,179.556,198.667,181.333,198.84C183.111,199.013,184.889,199.165,186.667,199.28C188.444,199.395,190.222,199.471,192,199.54C193.778,199.609,195.556,199.669,197.333,199.72C199.111,199.771,200.889,199.812,202.667,199.84C204.444,199.868,206.222,199.885,208,199.9C209.778,199.915,211.556,199.93,213.333,199.94C215.111,199.95,216.889,199.954,218.667,199.96C220.444,199.966,222.222,199.972,224,199.98C225.778,199.988,227.556,199.997,229.333,200C231.111,200.003,232.889,200.001,234.667,200C236.444,199.999,238.222,200,240,200C241.778,200,243.556,200,245.333,200C247.111,200,248.889,200,250.667,200C252.444,200,254.222,200,256,200C257.778,200,259.556,200,261.333,200C263.111,200,264.889,200,266.667,200C268.444,200,270.222,200,272,200C273.778,200,275.556,200,277.333,200C279.111,200,280.889,200,282.667,200C284.444,200,286.222,200,288,200C289.778,200,291.556,200,293.333,200C295.111,200,296.889,200,298.667,200C300.444,200,302.222,200,304,200C305.778,200,307.556,200,309.333,200C311.111,200,312.889,200,314.667,200C316.444,200,318.222,200,320,200" stroke="#cb181d" stroke-width="0.3"/></g><g class="mark-line role-mark layer_1_layer_3_marks" role="graphics-object" aria-roledescription="line mark container"><path aria-label="Incubation period (days): 0.2; upper: 0.0001" role="graphics-symbol" aria-roledescription="line mark" d="M5.333,199.8C7.111,199.43,8.889,199.06,10.667,198.26C12.444,197.46,14.222,196.228,16,194.52C17.778,192.812,19.556,190.626,21.333,187.8C23.111,184.974,24.889,181.506,26.667,177.36C28.444,173.214,30.222,168.39,32,162.8C33.778,157.21,35.556,150.853,37.333,144.28C39.111,137.707,40.889,130.919,42.667,123.94C44.444,116.961,46.222,109.793,48,102.88C49.778,95.967,51.556,89.311,53.333,82.9C55.111,76.489,56.889,70.323,58.667,64.4C60.444,58.477,62.222,52.798,64,47.5C65.778,42.202,67.556,37.284,69.333,32.62C71.111,27.956,72.889,23.544,74.667,19.78C76.444,16.016,78.222,12.9,80,10.58C81.778,8.26,83.556,6.736,85.333,6.26C87.111,5.784,88.889,6.356,90.667,7.88C92.444,9.404,94.222,11.878,96,15.34C97.778,18.802,99.556,23.251,101.333,28.1C103.111,32.949,104.889,38.199,106.667,43.66C108.444,49.121,110.222,54.794,112,60.6C113.778,66.406,115.556,72.344,117.333,77.98C119.111,83.616,120.889,88.951,122.667,94.06C124.444,99.169,126.222,104.053,128,108.72C129.778,113.387,131.556,117.837,133.333,121.96C135.111,126.083,136.889,129.877,138.667,133.38C140.444,136.883,142.222,140.093,144,143.14C145.778,146.187,147.556,149.07,149.333,151.68C151.111,154.29,152.889,156.626,154.667,158.78C156.444,160.934,158.222,162.904,160,164.72C161.778,166.536,163.556,168.198,165.333,169.72C167.111,171.242,168.889,172.626,170.667,173.92C172.444,175.214,174.222,176.42,176,177.52C177.778,178.62,179.556,179.615,181.333,180.54C183.111,181.465,184.889,182.32,186.667,183.12C188.444,183.92,190.222,184.666,192,185.36C193.778,186.054,195.556,186.698,197.333,187.3C199.111,187.902,200.889,188.463,202.667,188.98C204.444,189.497,206.222,189.972,208,190.42C209.778,190.868,211.556,191.29,213.333,191.68C215.111,192.07,216.889,192.429,218.667,192.76C220.444,193.091,222.222,193.394,224,193.68C225.778,193.966,227.556,194.235,229.333,194.48C231.111,194.725,232.889,194.948,234.667,195.16C236.444,195.372,238.222,195.574,240,195.76C241.778,195.946,243.556,196.116,245.333,196.28C247.111,196.444,248.889,196.602,250.667,196.74C252.444,196.878,254.222,196.997,256,197.12C257.778,197.243,259.556,197.37,261.333,197.48C263.111,197.59,264.889,197.683,266.667,197.78C268.444,197.877,270.222,197.977,272,198.06C273.778,198.143,275.556,198.208,277.333,198.28C279.111,198.352,280.889,198.431,282.667,198.5C284.444,198.569,286.222,198.629,288,198.68C289.778,198.731,291.556,198.774,293.333,198.82C295.111,198.866,296.889,198.917,298.667,198.96C300.444,199.003,302.222,199.039,304,199.08C305.778,199.121,307.556,199.167,309.333,199.2C311.111,199.233,312.889,199.252,314.667,199.28C316.444,199.308,318.222,199.344,320,199.38" stroke="#cb181d" stroke-width="0.3"/></g></g><path class="foreground" aria-hidden="true" d="" display="none"/></g></g></g><defs><clipPath id="clip4"><rect x="0" y="0" width="320" height="200"/></clipPath><clipPath id="clip5"><rect x="0" y="0" width="320" height="200"/></clipPath></defs></svg>