<svg xmlns="http://www.w3.org/2000/svg" xmlns:xlink="http://www.w3.org/1999/xlink" version="1.1" class="marks" width="348" height="247" viewBox="0 0 348 247"><rect width="348" height="247" fill="white"/><g fill="none" stroke-miterlimit="10" transform="translate(41,10)"><g class="mark-group role-frame root" role="graphics-object" aria-roledescription="group mark container"><g transform="translate(0,0)"><path class="background" aria-hidden="true" d="M0.5,0.5h300v200h-300Z" stroke="#ddd"/><g><g class="mark-group role-axis" role="graphics-symbol" aria-roledescription="axis" aria-label="X-axis titled 'Incubation period (days)' for a linear scale with values from 0 to 12"><g transform="translate(0.5,200.5)"><path class="background" aria-hidden="true" d="M0,0h0v0h0Z" pointer-events="none"/><g><g class="mark-rule role-axis-tick" pointer-events="none"><line transform="translate(0,0)" x2="0" y2="5" stroke="#888" stroke-width="1" opacity="1"/><line transform="translate(50,0)" x2="0" y2="5" stroke="#888" stroke-width="1" opacity="1"/><line transform="translate(100,0)" x2="0" y2="5" stroke="#888" stroke-width="1" opacity="1"/><line transform="translate(150,0)" x2="0" y2="5" stroke="#888" stroke-width="1" opacity="1"/><line transform="translate(200,0)" x2="0" y2="5" stroke="#888" stroke-width="1" opacity="1"/><line transform="translate(250,0)" x2="0" y2="5" stroke="#888" stroke-width="1" opacity="1"/><line transform="translate(300,0)" x2="0" y2="5" stroke="#888" stroke-width="1" opacity="1"/></g><g class="mark-text role-axis-label" pointer-events="none"><text text-anchor="start" transform="translate(0,15)" font-family="sans-serif" font-size="10px" fill="#000" opacity="1">0</text><text text-anchor="middle" transform="translate(50,15)" font-family="sans-serif" font-size="10px" fill="#000" opacity="1">2</text><text text-anchor="middle" transform="translate(100,15)" font-family="sans-serif" font-size="10px" fill="#000" opacity="1">4</text><text text-anchor="middle" transform="translate(150,15)" font-family="sans-serif" font-size="10px" fill="#000" opacity="1">6</text><text text-anchor="middle" transform="translate(200,15)" font-family="sans-serif" font-size="10px" fill="#000" opacity="1">8</text><text text-anchor="middle" transform="translate(250,15)" font-family="sans-serif" font-size="10px" fill="#000" opacity="1">10</text><text text-anchor="end" transform="translate(300,15)" font-family="sans-serif" font-size="10px" fill="#000" opacity="1">12</text></g><g class="mark-rule role-axis-domain" pointer-events="none"><line transform="translate(0,0)" x2="300" y2="0" stroke="#888" stroke-width="1" opacity="1"/></g><g class="mark-text role-axis-title" pointer-events="none"><text text-anchor="middle" transform="translate(150,30)" font-family="sans-serif" font-size="11px" font-weight="bold" fill="#000" opacity="1">Incubation period (days)</text></g></g><path class="foreground" aria-hidden="true" d="" pointer-events="none" display="none"/></g></g><g class="mark-group role-axis" role="graphics-symbol" aria-roledescription="axis" aria-label="Y-axis titled 'Cumulative distribution' for a linear scale with values from 0.0 to 1.0"><g transform="translate(0.5,0.5)"><path class="background" aria-hidden="true" d="M0,0h0v0h0Z" pointer-events="none"/><g><g class="mark-rule role-axis-tick" pointer-events="none"><line transform="translate(0,200)" x2="-5" y2="0" stroke="#888" stroke-width="1" opacity="1"/><line transform="translate(0,160)" x2="-5" y2="0" stroke="#888" stroke-width="1" opacity="1"/><line transform="translate(0,120)" x2="-5" y2="0" stroke="#888" stroke-width="1" opacity="1"/><line transform="translate(0,80)" x2="-5" y2="0" stroke="#888" stroke-width="1" opacity="1"/><line transform="translate(0,40)" x2="-5" y2="0" stroke="#888" stroke-width="1" opacity="1"/><line transform="translate(0,0)" x2="-5" y2="0" stroke="#888" stroke-width="1" opacity="1"/></g><g class="mark-text role-axis-label" pointer-events="none"><text text-anchor="end" transform="translate(-7,203)" font-family="sans-serif" font-size="10px" fill="#000" opacity="1">0.0</text><text text-anchor="end" transform="translate(-7,163)" font-family="sans-serif" font-size="10px" fill="#000" opacity="1">0.2</text><text text-anchor="end" transform="translate(-7,123)" font-family="sans-serif" font-size="10px" fill="#000" opacity="1">0.4</text><text text-anchor="end" transform="translate(-7,83)" font-family="sans-serif" font-size="10px" fill="#000" opacity="1">0.6</text><text text-anchor="end" transform="translate(-7,42.99999999999999)" font-family="sans-serif" font-size="10px" fill="#000" opacity="1">0.8</text><text text-anchor="end" transform="translate(-7,3)" font-family="sans-serif" font-size="10px" fill="#000" opacity="1">1.0</text></g><g class="mark-rule role-axis-domain" pointer-events="none"><line transform="translate(0,200)" x2="0" y2="-200" stroke="#888" stroke-width="1" opacity="1"/></g><g class="mark-text role-axis-title" pointer-events="none"><text text-anchor="middle" transform="translate(-24.9013671875,100) rotate(-90) translate(0,-2)" font-family="sans-serif" font-size="11px" font-weight="bold" fill="#000" opacity="1">Cumulative distribution</text></g></g><path class="foreground" aria-hidden="true" d="" pointer-events="none" display="none"/></g></g><g class="mark-group role-scope layer_0_pathgroup" role="graphics-object" aria-roledescription="group mark container"><g transform="translate(0,0)"><path class="background" aria-hidden="true" d="M0,0h300v200h-300Z"/><g><g class="mark-line role-mark layer_0_marks" role="graphics-object" aria-roledescription="line mark container"><path aria-label="Incubation period (days): 0.5; Cumulative distribution: 0; status: Non-vaccinated [16]" role="graphics-symbol" aria-roledescription="line mark" d="M12.5,200L18.75,200L18.75,200L31.25,200L31.25,200L43.75,200L43.75,188L56.25,188L56.25,162L68.75,162L68.75,138L81.25,138L81.25,100L93.75,100L93.75,76L106.25,76L106.25,50L118.75,50L118.75,38L131.25,38L131.25,24L143.75,24L143.75,12L156.25,12L156.25,0L168.75,0L168.75,0L181.25,0L181.25,0L193.75,0L193.75,0L206.25,0L206.25,0L218.75,0L218.75,0L231.25,0L231.25,0L243.75,0L243.75,0L256.25,0L256.25,0L268.75,0L268.75,0L281.25,0L281.25,0L293.75,0L293.75,0L300,0" stroke="#4c78a8" stroke-width="2"/></g></g><path class="foreground" aria-hidden="true" d="" display="none"/></g><g transform="translate(0,0)"><path class="background" aria-hidden="true" d="M0,0h300v200h-300Z"/><g><g class="mark-line role-mark layer_0_marks" role="graphics-object" aria-roledescription="line mark container"><path aria-label="Incubation period (days): 0.5; Cumulative distribution: 0; status: Vaccinated [40]" role="graphics-symbol" aria-roledescription="line mark" d="M12.5,200L18.75,200L18.75,200L31.25,200L31.25,196L43.75,196L43.75,176L56.25,176L56.25,140L68.75,140L68.75,96L81.25,96L81.25,60L93.75,60L93.75,36L106.25,36L106.25,20L118.75,20L118.75,16L131.25,16L131.25,10L143.75,10L143.75,4L156.25,4L156.25,0L168.75,0L168.75,0L181.25,0L181.25,0L193.75,0L193.75,0L206.25,0L206.25,0L218.75,0L218.75,0L231.25,0L231.25,0L243.75,0L243.75,0L256.25,0L256.25,0L268.75,0L268.75,0L281.25,0L281.25,0L293.75,0L293.75,0L300,0" stroke="#f58518" stroke-width="2"/></g></g><path class="foreground" aria-hidden="true" d="" display="none"/></g></g><g class="mark-group role-scope layer_1_pathgroup" role="graphics-object" aria-roledescription="group mark container"><g transform="translate(0,0)"><path class="background" aria-hidden="true" d="M0,0h300v200h-300Z"/><g><g class="mark-line role-mark layer_1_marks" role="graphics-object" aria-roledescription="line mark container"><path aria-label="Incubation period (days): 0.5; lower: 0; status: Non-vaccinated [16]" role="graphics-symbol" aria-roledescription="line mark" d="M12.5,200L18.75,200L18.75,200L31.25,200L31.25,200L43.75,200L43.75,200L56.25,200L56.25,200L68.75,200L68.75,188L81.25,188L81.25,162L93.75,162L93.75,124L106.25,124L106.25,100L118.75,100L118.75,76L131.25,76L131.25,62L143.75,62L143.75,50L156.25,50L156.25,24L168.75,24L168.75,24L181.25,24L181.25,12L193.75,12L193.75,12L206.25,12L206.25,12L218.75,12L218.75,12L231.25,12L231.25,12L243.75,12L243.75,12L256.25,12L256.25,0L268.75,0L268.75,0L281.25,0L281.25,0L293.75,0L293.75,0L300,0" stroke="#4c78a8" stroke-width="0.3" stroke-dasharray="4,3"/></g></g><path class="foreground" aria-hidden="true" d="" display="none"/></g><g transform="translate(0,0)"><path class="background" aria-hidden="true" d="M0,0h300v200h-300Z"/><g><g class="mark-line role-mark layer_1_marks" role="graphics-object" aria-roledescription="line mark container"><path aria-label="Incubation period (days): 0.5; lower: 0; status: Vaccinated [40]" role="graphics-symbol" aria-roledescription="line mark" d="M12.5,200L18.75,200L18.75,200L31.25,200L31.25,200L43.75,200L43.75,200L56.25,200L56.25,180L68.75,180L68.75,140L81.25,140L81.25,100L93.75,100L93.75,64L106.25,64L106.25,40L118.75,40L118.75,30L131.25,30L131.25,20L143.75,20L143.75,16L156.25,16L156.25,10L168.75,10L168.75,4L181.25,4L181.25,4L193.75,4L193.75,4L206.25,4L206.25,4L218.75,4L218.75,0L231.25,0L231.25,0L243.75,0L243.75,0L256.25,0L256.25,0L268.75,0L268.75,0L281.25,0L281.25,0L293.75,0L293.75,0L300,0" stroke="#f58518" stroke-width="0.3" stroke-dasharray="4,3"/></g></g><path class="foreground" aria-hidden="true" d="" display="none"/></g></g><g class="mark-group role-scope layer_2_pathgroup" role="graphics-object" aria-roledescription="group mark container"><g transform="translate(0,0)"><path class="background" aria-hidden="true" d="M0,0h300v200h-300Z"/><g><g class="mark-line role-mark layer_2_marks" role="graphics-object" aria-roledescription="line mark container"><path aria-label="Incubation period (days): 0.5; upper: 0; status: Non-vaccinated [16]" role="graphics-symbol" aria-roledescription="line mark" d="M12.5,200L18.75,200L18.75,176L31.25,176L31.25,162L43.75,162L43.75,138L56.25,138L56.25,112L68.75,112L68.75,76L81.25,76L81.25,50L93.75,50L93.75,38L106.25,38L106.25,24L118.75,24L118.75,24L131.25,24L131.25,12L143.75,12L143.75,0L156.25,0L156.25,0L168.75,0L168.75,0L181.25,0L181.25,0L193.75,0L193.75,0L206.25,0L206.25,0L218.75,0L218.75,0L231.25,0L231.25,0L243.75,0L243.75,0L256.25,0L256.25,0L268.75,0L268.75,0L281.25,0L281.25,0L293.75,0L293.75,0L300,0" stroke="#4c78a8" stroke-width="0.3" stroke-dasharray="4,3"/></g></g><path class="foreground" aria-hidden="true" d="" display="none"/></g><g transform="translate(0,0)"><path class="background" aria-hidden="true" d="M0,0h300v200h-300Z"/><g><g class="mark-line role-mark layer_2_marks" role="graphics-object" aria-roledescription="line mark container"><path aria-label="Incubation period (days): 0.5; upper: 0; status: Vaccinated [40]" role="graphics-symbol" aria-roledescription="line mark" d="M12.5,200L18.75,200L18.75,190L31.25,190L31.25,170L43.75,170L43.75,136L56.25,136L56.25,96L68.75,96L68.75,60L81.25,60L81.25,30L93.75,30L93.75,16L106.25,16L106.25,10L118.75,10L118.75,10L131.25,10L131.25,0L143.75,0L143.75,0L156.25,0L156.25,0L168.75,0L168.75,0L181.25,0L181.25,0L193.75,0L193.75,0L206.25,0L206.25,0L218.75,0L218.75,0L231.25,0L231.25,0L243.75,0L243.75,0L256.25,0L256.25,0L268.75,0L268.75,0L281.25,0L281.25,0L293.75,0L293.75,0L300,0" stroke="#f58518" stroke-width="0.3" stroke-dasharray="4,3"/></g></g><path class="foreground" aria-hidden="true" d="" display="none"/></g></g><g class="mark-group role-scope layer_3_pathgroup" role="graphics-object" aria-roledescription="group mark container"><g transform="translate(0,0)"><path class="background" aria-hidden="true" d="M0,0h300v200h-300Z"/><g><g class="mark-area role-mark layer_3_marks" clip-path="url(#clip6)" role="graphics-object" aria-roledescription="area mark container"><path aria-label="Incubation period (days): 0.5; lower: 0; upper: 0; status: Non-vaccinated [16]" role="graphics-symbol" aria-roledescription="area mark" d="M12.5,200L18.75,200L18.75,200L31.25,200L31.25,200L43.75,200L43.75,200L56.25,200L56.25,200L68.75,200L68.75,188L81.25,188L81.25,162L93.75,162L93.75,124L106.25,124L106.25,100L118.75,100L118.75,76L131.25,76L131.25,62L143.75,62L143.75,50L156.25,50L156.25,24L168.75,24L168.75,24L181.25,24L181.25,12L193.75,12L193.75,12L206.25,12L206.25,12L218.75,12L218.75,12L231.25,12L231.25,12L243.75,12L243.75,12L256.25,12L256.25,0L268.75,0L268.75,0L281.25,0L281.25,0L293.75,0L293.75,0L300,0L300,0L293.75,0L293.75,0L281.25,0L281.25,0L268.75,0L268.75,0L256.25,0L256.25,0L243.75,0L243.75,0L231.25,0L231.25,0L218.75,0L218.75,0L206.25,0L206.25,0L193.75,0L193.75,0L181.25,0L181.25,0L168.75,0L168.75,0L156.25,0L156.25,0L143.75,0L143.75,12L131.25,12L131.25,24L118.75,24L118.75,24L106.25,24L106.25,38L93.75,38L93.75,50L81.25,50L81.25,76L68.75,76L68.75,112L56.25,112L56.25,138L43.75,138L43.75,162L31.25,162L31.25,176L18.75,176L18.75,200L12.5,200Z" fill="#4c78a8" opacity="0.2"/></g></g><path class="foreground" aria-hidden="true" d="" display="none"/></g><g transform="translate(0,0)"><path class="background" aria-hidden="true" d="M0,0h300v200h-300Z"/><g><g class="mark-area role-mark layer_3_marks" clip-path="url(#clip7)" role="graphics-object" aria-roledescription="area mark container"><path aria-label="Incubation period (days): 0.5; lower: 0; upper: 0; status: Vaccinated [40]" role="graphics-symbol" aria-roledescription="area mark" d="M12.5,200L18.75,200L18.75,200L31.25,200L31.25,200L43.75,200L43.75,200L56.25,200L56.25,180L68.75,180L68.75,140L81.25,140L81.25,100L93.75,100L93.75,64L106.25,64L106.25,40L118.75,40L118.75,30L131.25,30L131.25,20L143.75,20L143.75,16L156.25,16L156.25,10L168.75,10L168.75,4L181.25,4L181.25,4L193.75,4L193.75,4L206.25,4L206.25,4L218.75,4L218.75,0L231.25,0L231.25,0L243.75,0L243.75,0L256.25,0L256.25,0L268.75,0L268.75,0L281.25,0L281.25,0L293.75,0L293.75,0L300,0L300,0L293.75,0L293.75,0L281.25,0L281.25,0L268.75,0L268.75,0L256.25,0L256.25,0L243.75,0L243.75,0L231.25,0L231.25,0L218.75,0L218.75,0L206.25,0L206.25,0L193.75,0L193.75,0L181.25,0L181.25,0L168.75,0L168.75,0L156.25,0L156.25,0L143.75,0L143.75,0L131.25,0L131.25,10L118.75,10L118.75,10L106.25,10L106.25,16L93.75,16L93.75,30L81.25,30L81.25,60L68.75,60L68.75,96L56.25,96L56.25,136L43.75,136L43.75,170L31.25,170L31.25,190L18.75,190L18.75,200L12.5,200Z" fill="#f58518" opacity="0.2"/></g></g><path class="foreground" aria-hidden="true" d="" display="none"/></g></g><g class="mark-group role-legend" role="graphics-symbol" aria-roledescription="legend" aria-label="Symbol legend titled 'Status [# cases]' for fill color and stroke color with 2 values: Non-vaccinated [16], Vaccinated [40]"><g transform="translate(186,40)"><path class="background" aria-hidden="true" d="M0,0h105v45h-105Z" pointer-events="none"/><g><g class="mark-group role-legend-entry"><g transform="translate(0,16)"><path class="background" aria-hidden="true" d="M0,0h0v0h0Z" pointer-events="none"/><g><g class="mark-group role-scope" role="graphics-object" aria-roledescription="group mark container"><g transform="translate(0,0)"><path class="background" aria-hidden="true" d="M0,0h104.9404296875v12.5h-104.9404296875Z" pointer-events="none" opacity="1"/><g><g class="mark-symbol role-legend-symbol" pointer-events="none"><path transform="translate(6,6)" d="M5,0A5,5,0,1,1,-5,0A5,5,0,1,1,5,0" fill="#4c78a8" stroke="#4c78a8" stroke-width="1.5" opacity="0.2"/></g><g class="mark-text role-legend-label" pointer-events="none"><text text-anchor="start" transform="translate(16,9)" font-family="sans-serif" font-size="10px" fill="#000" opacity="1">Non-vaccinated [16]</text></g></g><path class="foreground" aria-hidden="true" d="" pointer-events="none" display="none"/></g><g transform="translate(0,16)"><path class="background" aria-hidden="true" d="M0,0h104.9404296875v12.5h-104.9404296875Z" pointer-events="none" opacity="1"/><g><g class="mark-symbol role-legend-symbol" pointer-events="none"><path transform="translate(6,6)" d="M5,0A5,5,0,1,1,-5,0A5,5,0,1,1,5,0" fill="#f58518" stroke="#f58518" stroke-width="1.5" opacity="0.2"/></g><g class="mark-text role-legend-label" pointer-events="none"><text text-anchor="start" transform="translate(16,9)" font-family="sans-serif" font-size="10px" fill="#000" opacity="1">Vaccinated [40]</text></g></g><path class="foreground" aria-hidden="true" d="" pointer-events="none" display="none"/></g></g></g><path class="foreground" aria-hidden="true" d="" pointer-events="none" display="none"/></g></g><g class="mark-text role-legend-title" pointer-events="none"><text text-anchor="middle" transform="translate(52,9)" font-family="sans-serif" font-size="11px" font-weight="bold" fill="#000" opacity="1">Status [# cases]</text></g></g><path class="foreground" aria-hidden="true" d="" pointer-events="none" display="none"/></g></g></g><path class="foreground" aria-hidden="true" d="" display="none"/></g></g></g><defs><clipPath id="clip6"><rect x="0" y="0" width="300" height="200"/></clipPath><clipPath id="clip7"><rect x="0" y="0" width="300" height="200"/></clipPath></defs></svg>