<svg xmlns="http://www.w3.org/2000/svg" xmlns:xlink="http://www.w3.org/1999/xlink" version="1.1" class="marks" width="348" height="247" viewBox="0 0 348 247"><rect width="348" height="247" fill="white"/><g fill="none" stroke-miterlimit="10" transform="translate(41,10)"><g class="mark-group role-frame root" role="graphics-object" aria-roledescription="group mark container"><g transform="translate(0,0)"><path class="background" aria-hidden="true" d="M0.5,0.5h300v200h-300Z" stroke="#ddd"/><g><g class="mark-group role-axis" role="graphics-symbol" aria-roledescription="axis" aria-label="X-axis titled 'Incubation period (days)' for a linear scale with values from 0 to 10"><g transform="translate(0.5,200.5)"><path class="background" aria-hidden="true" d="M0,0h0v0h0Z" pointer-events="none"/><g><g class="mark-rule role-axis-tick" pointer-events="none"><line transform="translate(0,0)" x2="0" y2="5" stroke="#888" stroke-width="1" opacity="1"/><line transform="translate(30,0)" x2="0" y2="5" stroke="#888" stroke-width="1" opacity="1"/><line transform="translate(60,0)" x2="0" y2="5" stroke="#888" stroke-width="1" opacity="1"/><line transform="translate(90,0)" x2="0" y2="5" stroke="#888" stroke-width="1" opacity="1"/><line transform="translate(120,0)" x2="0" y2="5" stroke="#888" stroke-width="1" opacity="1"/><line transform="translate(150,0)" x2="0" y2="5" stroke="#888" stroke-width="1" opacity="1"/><line transform="translate(180,0)" x2="0" y2="5" stroke="#888" stroke-width="1" opacity="1"/><line transform="translate(210,0)" x2="0" y2="5" stroke="#888" stroke-width="1" opacity="1"/><line transform="translate(240,0)" x2="0" y2="5" stroke="#888" stroke-width="1" opacity="1"/><line transform="translate(270,0)" x2="0" y2="5" stroke="#888" stroke-width="1" opacity="1"/><line transform="translate(300,0)" x2="0" y2="5" stroke="#888" stroke-width="1" opacity="1"/></g><g class="mark-text role-axis-label" pointer-events="none"><text text-anchor="start" transform="translate(0,15)" font-family="sans-serif" font-size="10px" fill="#000" opacity="1">0</text><text text-anchor="middle" transform="translate(30,15)" font-family="sans-serif" font-size="10px" fill="#000" opacity="1">1</text><text text-anchor="middle" transform="translate(60,15)" font-family="sans-serif" font-size="10px" fill="#000" opacity="1">2</text><text text-anchor="middle" transform="translate(90,15)" font-family="sans-serif" font-size="10px" fill="#000" opacity="1">3</text><text text-anchor="middle" transform="translate(120,15)" font-family="sans-serif" font-size="10px" fill="#000" opacity="1">4</text><text text-anchor="middle" transform="translate(150,15)" font-family="sans-serif" font-size="10px" fill="#000" opacity="1">5</text><text text-anchor="middle" transform="translate(180,15)" font-family="sans-serif" font-size="10px" fill="#000" opacity="1">6</text><text text-anchor="middle" transform="translate(210,15)" font-family="sans-serif" font-size="10px" fill="#000" opacity="1">7</text><text text-anchor="middle" transform="translate(240,15)" font-family="sans-serif" font-size="10px" fill="#000" opacity="1">8</text><text text-anchor="middle" transform="translate(270,15)" font-family="sans-serif" font-size="10px" fill="#000" opacity="1">9</text><text text-anchor="end" transform="translate(300,15)" font-family="sans-serif" font-size="10px" fill="#000" opacity="1">10</text></g><g class="mark-rule role-axis-domain" pointer-events="none"><line transform="translate(0,0)" x2="300" y2="0" stroke="#888" stroke-width="1" opacity="1"/></g><g class="mark-text role-axis-title" pointer-events="none"><text text-anchor="middle" transform="translate(150,30)" font-family="sans-serif" font-size="11px" font-weight="bold" fill="#000" opacity="1">Incubation period (days)</text></g></g><path class="foreground" aria-hidden="true" d="" pointer-events="none" display="none"/></g></g><g class="mark-group role-axis" role="graphics-symbol" aria-roledescription="axis" aria-label="Y-axis titled 'Cumulative distribution' for a linear scale with values from 0.0 to 1.0"><g transform="translate(0.5,0.5)"><path class="background" aria-hidden="true" d="M0,0h0v0h0Z" pointer-events="none"/><g><g class="mark-rule role-axis-tick" pointer-events="none"><line transform="translate(0,200)" x2="-5" y2="0" stroke="#888" stroke-width="1" opacity="1"/><line transform="translate(0,160)" x2="-5" y2="0" stroke="#888" stroke-width="1" opacity="1"/><line transform="translate(0,120)" x2="-5" y2="0" stroke="#888" stroke-width="1" opacity="1"/><line transform="translate(0,80)" x2="-5" y2="0" stroke="#888" stroke-width="1" opacity="1"/><line transform="translate(0,40)" x2="-5" y2="0" stroke="#888" stroke-width="1" opacity="1"/><line transform="translate(0,0)" x2="-5" y2="0" stroke="#888" stroke-width="1" opacity="1"/></g><g class="mark-text role-axis-label" pointer-events="none"><text text-anchor="end" transform="translate(-7,203)" font-family="sans-serif" font-size="10px" fill="#000" opacity="1">0.0</text><text text-anchor="end" transform="translate(-7,163)" font-family="sans-serif" font-size="10px" fill="#000" opacity="1">0.2</text><text text-anchor="end" transform="translate(-7,123)" font-family="sans-serif" font-size="10px" fill="#000" opacity="1">0.4</text><text text-anchor="end" transform="translate(-7,83)" font-family="sans-serif" font-size="10px" fill="#000" opacity="1">0.6</text><text text-anchor="end" transform="translate(-7,42.99999999999999)" font-family="sans-serif" font-size="10px" fill="#000" opacity="1">0.8</text><text text-anchor="end" transform="translate(-7,3)" font-family="sans-serif" font-size="10px" fill="#000" opacity="1">1.0</text></g><g class="mark-rule role-axis-domain" pointer-events="none"><line transform="translate(0,200)" x2="0" y2="-200" stroke="#888" stroke-width="1" opacity="1"/></g><g class="mark-text role-axis-title" pointer-events="none"><text text-anchor="middle" transform="translate(-24.9013671875,100) rotate(-90) translate(0,-2)" font-family="sans-serif" font-size="11px" font-weight="bold" fill="#000" opacity="1">Cumulative distribution</text></g></g><path class="foreground" aria-hidden="true" d="" pointer-events="none" display="none"/></g></g><g class="mark-line role-mark layer_0_layer_0_marks" role="graphics-object" aria-roledescription="line mark container"><path aria-label="Incubation period (days): 0.5; Cumulative distribution: 0" role="graphics-symbol" aria-roledescription="line mark" d="M15,200L22.5,200L22.5,200L37.5,200L37.5,200L52.5,200L52.5,188.406L67.5,188.406L67.5,162.318L82.5,162.318L82.5,121.74L97.5,121.74L97.5,84.058L112.5,84.058L112.5,52.174L127.5,52.174L127.5,34.782L142.5,34.782L142.5,23.188L157.5,23.188L157.5,14.492L172.5,14.492L172.5,8.696L187.5,8.696L187.5,2.898L202.5,2.898L202.5,0L217.5,0L217.5,0L232.5,0L232.5,0L247.5,0L247.5,0L262.5,0L262.5,0L277.5,0L277.5,0L292.5,0L292.5,0L300,0" stroke="grey" stroke-width="2" stroke-dasharray="3,2"/></g><g class="mark-line role-mark layer_0_layer_1_marks" role="graphics-object" aria-roledescription="line mark container"><path aria-label="Incubation period (days): 0.5; lower: 0" role="graphics-symbol" aria-roledescription="line mark" d="M15,200L22.5,200L22.5,200L37.5,200L37.5,200L52.5,200L52.5,200L67.5,200L67.5,185.508L82.5,185.508L82.5,153.624L97.5,153.624L97.5,113.044L112.5,113.044L112.5,78.26L127.5,78.26L127.5,52.174L142.5,52.174L142.5,37.682L157.5,37.682L157.5,26.088L172.5,26.088L172.5,17.392L187.5,17.392L187.5,11.594L202.5,11.594L202.5,8.696L217.5,8.696L217.5,5.798L232.5,5.798L232.5,2.898L247.5,2.898L247.5,2.898L262.5,2.898L262.5,2.898L277.5,2.898L277.5,2.898L292.5,2.898L292.5,0L300,0" stroke="grey" stroke-width="0.3" stroke-dasharray="4,3"/></g><g class="mark-line role-mark layer_0_layer_2_marks" role="graphics-object" aria-roledescription="line mark container"><path aria-label="Incubation period (days): 0.5; upper: 0" role="graphics-symbol" aria-roledescription="line mark" d="M15,200L22.5,200L22.5,197.102L37.5,197.102L37.5,185.508L52.5,185.508L52.5,162.318L67.5,162.318L67.5,130.434L82.5,130.434L82.5,89.856L97.5,89.856L97.5,55.072L112.5,55.072L112.5,31.884L127.5,31.884L127.5,20.29L142.5,20.29L142.5,11.594L157.5,11.594L157.5,5.798L172.5,5.798L172.5,0L187.5,0L187.5,0L202.5,0L202.5,0L217.5,0L217.5,0L232.5,0L232.5,0L247.5,0L247.5,0L262.5,0L262.5,0L277.5,0L277.5,0L292.5,0L292.5,0L300,0" stroke="grey" stroke-width="0.3" stroke-dasharray="4,3"/></g><g class="mark-area role-mark layer_0_layer_3_marks" clip-path="url(#clip1)" role="graphics-object" aria-roledescription="area mark container"><path aria-label="Incubation period (days): 0.5; lower: 0; upper: 0" role="graphics-symbol" aria-roledescription="area mark" d="M15,200L22.5,200L22.5,200L37.5,200L37.5,200L52.5,200L52.5,200L67.5,200L67.5,185.508L82.5,185.508L82.5,153.624L97.5,153.624L97.5,113.044L112.5,113.044L112.5,78.26L127.5,78.26L127.5,52.174L142.5,52.174L142.5,37.682L157.5,37.682L157.5,26.088L172.5,26.088L172.5,17.392L187.5,17.392L187.5,11.594L202.5,11.594L202.5,8.696L217.5,8.696L217.5,5.798L232.5,5.798L232.5,2.898L247.5,2.898L247.5,2.898L262.5,2.898L262.5,2.898L277.5,2.898L277.5,2.898L292.5,2.898L292.5,0L300,0L300,0L292.5,0L292.5,0L277.5,0L277.5,0L262.5,0L262.5,0L247.5,0L247.5,0L232.5,0L232.5,0L217.5,0L217.5,0L202.5,0L202.5,0L187.5,0L187.5,0L172.5,0L172.5,5.798L157.5,5.798L157.5,11.594L142.5,11.594L142.5,20.29L127.5,20.29L127.5,31.884L112.5,31.884L112.5,55.072L97.5,55.072L97.5,89.856L82.5,89.856L82.5,130.434L67.5,130.434L67.5,162.318L52.5,162.318L52.5,185.508L37.5,185.508L37.5,197.102L22.5,197.102L22.5,200L15,200Z" fill="grey" opacity="0.2"/></g><g class="mark-line role-mark layer_1_layer_0_marks" role="graphics-object" aria-roledescription="line mark container"><path aria-label="Incubation period (days): 0.2; median: 0" role="graphics-symbol" aria-roledescription="line mark" d="M6,200L12,200L18,200L24,199.992L30,199.922L36,199.592L42,198.596L48,196.36L54,192.304L60,186.036L66,177.368L72,166.584L78,154.02L84,140.176L90,125.562L96,110.86L102,96.576L108,82.976L114,70.536L120,59.354L126,49.392L132,40.764L138,33.37L144,27.122L150,21.926L156,17.586L162,13.988L168,11.102L174,8.788L180,6.922L186,5.436L192,4.26L198,3.324L204,2.594L210,2.014L216,1.564L222,1.212L228,0.94L234,0.728L240,0.564L246,0.436L252,0.336L258,0.26L264,0.2L270,0.154L276,0.12L282,0.092L288,0.07L294,0.054L300,0.042" stroke="black" stroke-width="2"/></g><g class="mark-line role-mark layer_1_layer_1_marks" role="graphics-object" aria-roledescription="line mark container"><path aria-label="Incubation period (days): 0.2; lower: 0" role="graphics-symbol" aria-roledescription="line mark" d="M6,200L12,200L18,200L24,200L30,200L36,199.998L42,199.98L48,199.86L54,199.366L60,197.966L66,194.902L72,189.452L78,181.178L84,170.34L90,157.372L96,143.124L102,128.464L108,114.166L114,100.75L120,88.52L126,77.464L132,67.596L138,58.95L144,51.354L150,44.772L156,39.024L162,34.028L168,29.7L174,25.81L180,22.45L186,19.592L192,17.092L198,14.92L204,13.026L210,11.442L216,10.036L222,8.804L228,7.732L234,6.806L240,5.974L246,5.24L252,4.618L258,4.07L264,3.582L270,3.15L276,2.786L282,2.46L288,2.172L294,1.916L300,1.688" stroke="black" stroke-width="0.7" stroke-dasharray="8,6"/></g><g class="mark-line role-mark layer_1_layer_2_marks" role="graphics-object" aria-roledescription="line mark container"><path aria-label="Incubation period (days): 0.2; upper: 0.0001" role="graphics-symbol" aria-roledescription="line mark" d="M6,199.98L12,199.804L18,199.256L24,198.042L30,195.832L36,192.274L42,186.916L48,179.64L54,170.302L60,159.344L66,147.142L72,133.974L78,119.996L84,106.076L90,92.154L96,78.648L102,65.93L108,54.252L114,43.952L120,34.72L126,26.862L132,20.552L138,15.382L144,11.26L150,8.082L156,5.706L162,3.978L168,2.712L174,1.824L180,1.202L186,0.778L192,0.494L198,0.31L204,0.19L210,0.112L216,0.068L222,0.038L228,0.022L234,0.012L240,0.006L246,0.004L252,0.002L258,0L264,0L270,0L276,0L282,0L288,0L294,0L300,0" stroke="black" stroke-width="0.7" stroke-dasharray="8,6"/></g></g><path class="foreground" aria-hidden="true" d="" display="none"/></g></g></g><defs><clipPath id="clip1"><rect x="0" y="0" width="300" height="200"/></clipPath></defs></svg>