<svg xmlns="http://www.w3.org/2000/svg" xmlns:xlink="http://www.w3.org/1999/xlink" version="1.1" class="marks" width="348" height="247" viewBox="0 0 348 247"><rect width="348" height="247" fill="white"/><g fill="none" stroke-miterlimit="10" transform="translate(41,10)"><g class="mark-group role-frame root" role="graphics-object" aria-roledescription="group mark container"><g transform="translate(0,0)"><path class="background" aria-hidden="true" d="M0.5,0.5h300v200h-300Z" stroke="#ddd"/><g><g class="mark-group role-axis" role="graphics-symbol" aria-roledescription="axis" aria-label="X-axis titled 'Incubation period (days)' for a linear scale with values from 0 to 10"><g transform="translate(0.5,200.5)"><path class="background" aria-hidden="true" d="M0,0h0v0h0Z" pointer-events="none"/><g><g class="mark-rule role-axis-tick" pointer-events="none"><line transform="translate(0,0)" x2="0" y2="5" stroke="#888" stroke-width="1" opacity="1"/><line transform="translate(30,0)" x2="0" y2="5" stroke="#888" stroke-width="1" opacity="1"/><line transform="translate(60,0)" x2="0" y2="5" stroke="#888" stroke-width="1" opacity="1"/><line transform="translate(90,0)" x2="0" y2="5" stroke="#888" stroke-width="1" opacity="1"/><line transform="translate(120,0)" x2="0" y2="5" stroke="#888" stroke-width="1" opacity="1"/><line transform="translate(150,0)" x2="0" y2="5" stroke="#888" stroke-width="1" opacity="1"/><line transform="translate(180,0)" x2="0" y2="5" stroke="#888" stroke-width="1" opacity="1"/><line transform="translate(210,0)" x2="0" y2="5" stroke="#888" stroke-width="1" opacity="1"/><line transform="translate(240,0)" x2="0" y2="5" stroke="#888" stroke-width="1" opacity="1"/><line transform="translate(270,0)" x2="0" y2="5" stroke="#888" stroke-width="1" opacity="1"/><line transform="translate(300,0)" x2="0" y2="5" stroke="#888" stroke-width="1" opacity="1"/></g><g class="mark-text role-axis-label" pointer-events="none"><text text-anchor="start" transform="translate(0,15)" font-family="sans-serif" font-size="10px" fill="#000" opacity="1">0</text><text text-anchor="middle" transform="translate(30,15)" font-family="sans-serif" font-size="10px" fill="#000" opacity="1">1</text><text text-anchor="middle" transform="translate(60,15)" font-family="sans-serif" font-size="10px" fill="#000" opacity="1">2</text><text text-anchor="middle" transform="translate(90,15)" font-family="sans-serif" font-size="10px" fill="#000" opacity="1">3</text><text text-anchor="middle" transform="translate(120,15)" font-family="sans-serif" font-size="10px" fill="#000" opacity="1">4</text><text text-anchor="middle" transform="translate(150,15)" font-family="sans-serif" font-size="10px" fill="#000" opacity="1">5</text><text text-anchor="middle" transform="translate(180,15)" font-family="sans-serif" font-size="10px" fill="#000" opacity="1">6</text><text text-anchor="middle" transform="translate(210,15)" font-family="sans-serif" font-size="10px" fill="#000" opacity="1">7</text><text text-anchor="middle" transform="translate(240,15)" font-family="sans-serif" font-size="10px" fill="#000" opacity="1">8</text><text text-anchor="middle" transform="translate(270,15)" font-family="sans-serif" font-size="10px" fill="#000" opacity="1">9</text><text text-anchor="end" transform="translate(300,15)" font-family="sans-serif" font-size="10px" fill="#000" opacity="1">10</text></g><g class="mark-rule role-axis-domain" pointer-events="none"><line transform="translate(0,0)" x2="300" y2="0" stroke="#888" stroke-width="1" opacity="1"/></g><g class="mark-text role-axis-title" pointer-events="none"><text text-anchor="middle" transform="translate(150,30)" font-family="sans-serif" font-size="11px" font-weight="bold" fill="#000" opacity="1">Incubation period (days)</text></g></g><path class="foreground" aria-hidden="true" d="" pointer-events="none" display="none"/></g></g><g class="mark-group role-axis" role="graphics-symbol" aria-roledescription="axis" aria-label="Y-axis titled 'Cumulative distribution' for a linear scale with values from 0.0 to 1.0"><g transform="translate(0.5,0.5)"><path class="background" aria-hidden="true" d="M0,0h0v0h0Z" pointer-events="none"/><g><g class="mark-rule role-axis-tick" pointer-events="none"><line transform="translate(0,200)" x2="-5" y2="0" stroke="#888" stroke-width="1" opacity="1"/><line transform="translate(0,160)" x2="-5" y2="0" stroke="#888" stroke-width="1" opacity="1"/><line transform="translate(0,120)" x2="-5" y2="0" stroke="#888" stroke-width="1" opacity="1"/><line transform="translate(0,80)" x2="-5" y2="0" stroke="#888" stroke-width="1" opacity="1"/><line transform="translate(0,40)" x2="-5" y2="0" stroke="#888" stroke-width="1" opacity="1"/><line transform="translate(0,0)" x2="-5" y2="0" stroke="#888" stroke-width="1" opacity="1"/></g><g class="mark-text role-axis-label" pointer-events="none"><text text-anchor="end" transform="translate(-7,203)" font-family="sans-serif" font-size="10px" fill="#000" opacity="1">0.0</text><text text-anchor="end" transform="translate(-7,163)" font-family="sans-serif" font-size="10px" fill="#000" opacity="1">0.2</text><text text-anchor="end" transform="translate(-7,123)" font-family="sans-serif" font-size="10px" fill="#000" opacity="1">0.4</text><text text-anchor="end" transform="translate(-7,83)" font-family="sans-serif" font-size="10px" fill="#000" opacity="1">0.6</text><text text-anchor="end" transform="translate(-7,42.99999999999999)" font-family="sans-serif" font-size="10px" fill="#000" opacity="1">0.8</text><text text-anchor="end" transform="translate(-7,3)" font-family="sans-serif" font-size="10px" fill="#000" opacity="1">1.0</text></g><g class="mark-rule role-axis-domain" pointer-events="none"><line transform="translate(0,200)" x2="0" y2="-200" stroke="#888" stroke-width="1" opacity="1"/></g><g class="mark-text role-axis-title" pointer-events="none"><text text-anchor="middle" transform="translate(-24.9013671875,100) rotate(-90) translate(0,-2)" font-family="sans-serif" font-size="11px" font-weight="bold" fill="#000" opacity="1">Cumulative distribution</text></g></g><path class="foreground" aria-hidden="true" d="" pointer-events="none" display="none"/></g></g><g class="mark-line role-mark layer_0_layer_0_marks" role="graphics-object" aria-roledescription="line mark container"><path aria-label="Incubation period (days): 0.5; Cumulative distribution: 0" role="graphics-symbol" aria-roledescription="line mark" d="M15,200L22.5,200L22.5,200L37.5,200L37.5,200L52.5,200L52.5,187.5L67.5,187.5L67.5,175L82.5,175L82.5,137.5L97.5,137.5L97.5,100L112.5,100L112.5,75L127.5,75L127.5,50L142.5,50L142.5,37.5L157.5,37.5L157.5,25L172.5,25L172.5,12.5L187.5,12.5L187.5,0L202.5,0L202.5,0L217.5,0L217.5,0L232.5,0L232.5,0L247.5,0L247.5,0L262.5,0L262.5,0L277.5,0L277.5,0L292.5,0L292.5,0L300,0" stroke="#4575b4" stroke-width="2" stroke-dasharray="3,2"/></g><g class="mark-line role-mark layer_0_layer_1_marks" role="graphics-object" aria-roledescription="line mark container"><path aria-label="Incubation period (days): 0.5; lower: 0" role="graphics-symbol" aria-roledescription="line mark" d="M15,200L22.5,200L22.5,200L37.5,200L37.5,200L52.5,200L52.5,200L67.5,200L67.5,200L82.5,200L82.5,187.5L97.5,187.5L97.5,150L112.5,150L112.5,112.5L127.5,112.5L127.5,87.5L142.5,87.5L142.5,75L157.5,75L157.5,50L172.5,50L172.5,37.5L187.5,37.5L187.5,25L202.5,25L202.5,12.5L217.5,12.5L217.5,12.5L232.5,12.5L232.5,12.5L247.5,12.5L247.5,12.5L262.5,12.5L262.5,12.5L277.5,12.5L277.5,0L292.5,0L292.5,0L300,0" stroke="#4575b4" stroke-width="0.3" stroke-dasharray="4,3"/></g><g class="mark-line role-mark layer_0_layer_2_marks" role="graphics-object" aria-roledescription="line mark container"><path aria-label="Incubation period (days): 0.5; upper: 0" role="graphics-symbol" aria-roledescription="line mark" d="M15,200L22.5,200L22.5,200L37.5,200L37.5,187.5L52.5,187.5L52.5,162.5L67.5,162.5L67.5,125L82.5,125L82.5,87.5L97.5,87.5L97.5,50L112.5,50L112.5,37.5L127.5,37.5L127.5,25L142.5,25L142.5,25L157.5,25L157.5,12.5L172.5,12.5L172.5,0L187.5,0L187.5,0L202.5,0L202.5,0L217.5,0L217.5,0L232.5,0L232.5,0L247.5,0L247.5,0L262.5,0L262.5,0L277.5,0L277.5,0L292.5,0L292.5,0L300,0" stroke="#4575b4" stroke-width="0.3" stroke-dasharray="4,3"/></g><g class="mark-area role-mark layer_0_layer_3_marks" clip-path="url(#clip2)" role="graphics-object" aria-roledescription="area mark container"><path aria-label="Incubation period (days): 0.5; lower: 0; upper: 0" role="graphics-symbol" aria-roledescription="area mark" d="M15,200L22.5,200L22.5,200L37.5,200L37.5,200L52.5,200L52.5,200L67.5,200L67.5,200L82.5,200L82.5,187.5L97.5,187.5L97.5,150L112.5,150L112.5,112.5L127.5,112.5L127.5,87.5L142.5,87.5L142.5,75L157.5,75L157.5,50L172.5,50L172.5,37.5L187.5,37.5L187.5,25L202.5,25L202.5,12.5L217.5,12.5L217.5,12.5L232.5,12.5L232.5,12.5L247.5,12.5L247.5,12.5L262.5,12.5L262.5,12.5L277.5,12.5L277.5,0L292.5,0L292.5,0L300,0L300,0L292.5,0L292.5,0L277.5,0L277.5,0L262.5,0L262.5,0L247.5,0L247.5,0L232.5,0L232.5,0L217.5,0L217.5,0L202.5,0L202.5,0L187.5,0L187.5,0L172.5,0L172.5,12.5L157.5,12.5L157.5,25L142.5,25L142.5,25L127.5,25L127.5,37.5L112.5,37.5L112.5,50L97.5,50L97.5,87.5L82.5,87.5L82.5,125L67.5,125L67.5,162.5L52.5,162.5L52.5,187.5L37.5,187.5L37.5,200L22.5,200L22.5,200L15,200Z" fill="#4575b4" opacity="0.2"/></g><g class="mark-line role-mark layer_1_layer_0_marks" role="graphics-object" aria-roledescription="line mark container"><path aria-label="Incubation period (days): 0.5; Cumulative distribution: 0" role="graphics-symbol" aria-roledescription="line mark" d="M15,200L22.5,200L22.5,200L37.5,200L37.5,200L52.5,200L52.5,185L67.5,185L67.5,155L82.5,155L82.5,120L97.5,120L97.5,80L112.5,80L112.5,50L127.5,50L127.5,30L142.5,30L142.5,20L157.5,20L157.5,10L172.5,10L172.5,5L187.5,5L187.5,0L202.5,0L202.5,0L217.5,0L217.5,0L232.5,0L232.5,0L247.5,0L247.5,0L262.5,0L262.5,0L277.5,0L277.5,0L292.5,0L292.5,0L300,0" stroke="#d73027" stroke-width="2"/></g><g class="mark-line role-mark layer_1_layer_1_marks" role="graphics-object" aria-roledescription="line mark container"><path aria-label="Incubation period (days): 0.5; lower: 0" role="graphics-symbol" aria-roledescription="line mark" d="M15,200L22.5,200L22.5,200L37.5,200L37.5,200L52.5,200L52.5,200L67.5,200L67.5,185L82.5,185L82.5,155L97.5,155L97.5,115L112.5,115L112.5,80L127.5,80L127.5,50L142.5,50L142.5,35L157.5,35L157.5,25L172.5,25L172.5,20L187.5,20L187.5,15L202.5,15L202.5,10L217.5,10L217.5,5L232.5,5L232.5,5L247.5,5L247.5,5L262.5,5L262.5,5L277.5,5L277.5,0L292.5,0L292.5,0L300,0" stroke="#d73027" stroke-width="0.3" stroke-dasharray="4,3"/></g><g class="mark-line role-mark layer_1_layer_2_marks" role="graphics-object" aria-roledescription="line mark container"><path aria-label="Incubation period (days): 0.5; upper: 0" role="graphics-symbol" aria-roledescription="line mark" d="M15,200L22.5,200L22.5,195L37.5,195L37.5,185L52.5,185L52.5,155L67.5,155L67.5,120L82.5,120L82.5,80L97.5,80L97.5,45L112.5,45L112.5,25L127.5,25L127.5,10L142.5,10L142.5,10L157.5,10L157.5,5L172.5,5L172.5,0L187.5,0L187.5,0L202.5,0L202.5,0L217.5,0L217.5,0L232.5,0L232.5,0L247.5,0L247.5,0L262.5,0L262.5,0L277.5,0L277.5,0L292.5,0L292.5,0L300,0" stroke="#d73027" stroke-width="0.3" stroke-dasharray="4,3"/></g><g class="mark-area role-mark layer_1_layer_3_marks" clip-path="url(#clip3)" role="graphics-object" aria-roledescription="area mark container"><path aria-label="Incubation period (days): 0.5; lower: 0; upper: 0" role="graphics-symbol" aria-roledescription="area mark" d="M15,200L22.5,200L22.5,200L37.5,200L37.5,200L52.5,200L52.5,200L67.5,200L67.5,185L82.5,185L82.5,155L97.5,155L97.5,115L112.5,115L112.5,80L127.5,80L127.5,50L142.5,50L142.5,35L157.5,35L157.5,25L172.5,25L172.5,20L187.5,20L187.5,15L202.5,15L202.5,10L217.5,10L217.5,5L232.5,5L232.5,5L247.5,5L247.5,5L262.5,5L262.5,5L277.5,5L277.5,0L292.5,0L292.5,0L300,0L300,0L292.5,0L292.5,0L277.5,0L277.5,0L262.5,0L262.5,0L247.5,0L247.5,0L232.5,0L232.5,0L217.5,0L217.5,0L202.5,0L202.5,0L187.5,0L187.5,0L172.5,0L172.5,5L157.5,5L157.5,10L142.5,10L142.5,10L127.5,10L127.5,25L112.5,25L112.5,45L97.5,45L97.5,80L82.5,80L82.5,120L67.5,120L67.5,155L52.5,155L52.5,185L37.5,185L37.5,195L22.5,195L22.5,200L15,200Z" fill="#d73027" opacity="0.2"/></g></g><path class="foreground" aria-hidden="true" d="" display="none"/></g></g></g><defs><clipPath id="clip2"><rect x="0" y="0" width="300" height="200"/></clipPath><clipPath id="clip3"><rect x="0" y="0" width="300" height="200"/></clipPath></defs></svg>