<svg xmlns="http://www.w3.org/2000/svg" xmlns:xlink="http://www.w3.org/1999/xlink" version="1.1" class="marks" width="348" height="247" viewBox="0 0 348 247"><rect width="348" height="247" fill="white"/><g fill="none" stroke-miterlimit="10" transform="translate(41,10)"><g class="mark-group role-frame root" role="graphics-object" aria-roledescription="group mark container"><g transform="translate(0,0)"><path class="background" aria-hidden="true" d="M0.5,0.5h300v200h-300Z" stroke="#ddd"/><g><g class="mark-group role-axis" role="graphics-symbol" aria-roledescription="axis" aria-label="X-axis titled 'Incubation period (days)' for a linear scale with values from 0 to 12"><g transform="translate(0.5,200.5)"><path class="background" aria-hidden="true" d="M0,0h0v0h0Z" pointer-events="none"/><g><g class="mark-rule role-axis-tick" pointer-events="none"><line transform="translate(0,0)" x2="0" y2="5" stroke="#888" stroke-width="1" opacity="1"/><line transform="translate(50,0)" x2="0" y2="5" stroke="#888" stroke-width="1" opacity="1"/><line transform="translate(100,0)" x2="0" y2="5" stroke="#888" stroke-width="1" opacity="1"/><line transform="translate(150,0)" x2="0" y2="5" stroke="#888" stroke-width="1" opacity="1"/><line transform="translate(200,0)" x2="0" y2="5" stroke="#888" stroke-width="1" opacity="1"/><line transform="translate(250,0)" x2="0" y2="5" stroke="#888" stroke-width="1" opacity="1"/><line transform="translate(300,0)" x2="0" y2="5" stroke="#888" stroke-width="1" opacity="1"/></g><g class="mark-text role-axis-label" pointer-events="none"><text text-anchor="start" transform="translate(0,15)" font-family="sans-serif" font-size="10px" fill="#000" opacity="1">0</text><text text-anchor="middle" transform="translate(50,15)" font-family="sans-serif" font-size="10px" fill="#000" opacity="1">2</text><text text-anchor="middle" transform="translate(100,15)" font-family="sans-serif" font-size="10px" fill="#000" opacity="1">4</text><text text-anchor="middle" transform="translate(150,15)" font-family="sans-serif" font-size="10px" fill="#000" opacity="1">6</text><text text-anchor="middle" transform="translate(200,15)" font-family="sans-serif" font-size="10px" fill="#000" opacity="1">8</text><text text-anchor="middle" transform="translate(250,15)" font-family="sans-serif" font-size="10px" fill="#000" opacity="1">10</text><text text-anchor="end" transform="translate(300,15)" font-family="sans-serif" font-size="10px" fill="#000" opacity="1">12</text></g><g class="mark-rule role-axis-domain" pointer-events="none"><line transform="translate(0,0)" x2="300" y2="0" stroke="#888" stroke-width="1" opacity="1"/></g><g class="mark-text role-axis-title" pointer-events="none"><text text-anchor="middle" transform="translate(150,30)" font-family="sans-serif" font-size="11px" font-weight="bold" fill="#000" opacity="1">Incubation period (days)</text></g></g><path class="foreground" aria-hidden="true" d="" pointer-events="none" display="none"/></g></g><g class="mark-group role-axis" role="graphics-symbol" aria-roledescription="axis" aria-label="Y-axis titled 'Cumulative distribution' for a linear scale with values from 0.0 to 1.0"><g transform="translate(0.5,0.5)"><path class="background" aria-hidden="true" d="M0,0h0v0h0Z" pointer-events="none"/><g><g class="mark-rule role-axis-tick" pointer-events="none"><line transform="translate(0,200)" x2="-5" y2="0" stroke="#888" stroke-width="1" opacity="1"/><line transform="translate(0,160)" x2="-5" y2="0" stroke="#888" stroke-width="1" opacity="1"/><line transform="translate(0,120)" x2="-5" y2="0" stroke="#888" stroke-width="1" opacity="1"/><line transform="translate(0,80)" x2="-5" y2="0" stroke="#888" stroke-width="1" opacity="1"/><line transform="translate(0,40)" x2="-5" y2="0" stroke="#888" stroke-width="1" opacity="1"/><line transform="translate(0,0)" x2="-5" y2="0" stroke="#888" stroke-width="1" opacity="1"/></g><g class="mark-text role-axis-label" pointer-events="none"><text text-anchor="end" transform="translate(-7,203)" font-family="sans-serif" font-size="10px" fill="#000" opacity="1">0.0</text><text text-anchor="end" transform="translate(-7,163)" font-family="sans-serif" font-size="10px" fill="#000" opacity="1">0.2</text><text text-anchor="end" transform="translate(-7,123)" font-family="sans-serif" font-size="10px" fill="#000" opacity="1">0.4</text><text text-anchor="end" transform="translate(-7,83)" font-family="sans-serif" font-size="10px" fill="#000" opacity="1">0.6</text><text text-anchor="end" transform="translate(-7,42.99999999999999)" font-family="sans-serif" font-size="10px" fill="#000" opacity="1">0.8</text><text text-anchor="end" transform="translate(-7,3)" font-family="sans-serif" font-size="10px" fill="#000" opacity="1">1.0</text></g><g class="mark-rule role-axis-domain" pointer-events="none"><line transform="translate(0,200)" x2="0" y2="-200" stroke="#888" stroke-width="1" opacity="1"/></g><g class="mark-text role-axis-title" pointer-events="none"><text text-anchor="middle" transform="translate(-24.9013671875,100) rotate(-90) translate(0,-2)" font-family="sans-serif" font-size="11px" font-weight="bold" fill="#000" opacity="1">Cumulative distribution</text></g></g><path class="foreground" aria-hidden="true" d="" pointer-events="none" display="none"/></g></g><g class="mark-group role-scope layer_0_pathgroup" role="graphics-object" aria-roledescription="group mark container"><g transform="translate(0,0)"><path class="background" aria-hidden="true" d="M0,0h300v200h-300Z"/><g><g class="mark-line role-mark layer_0_marks" role="graphics-object" aria-roledescription="line mark container"><path aria-label="Incubation period (days): 0.5; Cumulative distribution: 0; 年齡str: 0-17 [8]" role="graphics-symbol" aria-roledescription="line mark" d="M12.5,200L18.75,200L18.75,200L31.25,200L31.25,176L43.75,176L43.75,150L56.25,150L56.25,100L68.75,100L68.75,76L81.25,76L81.25,50L93.75,50L93.75,50L106.25,50L106.25,24L118.75,24L118.75,24L131.25,24L131.25,24L143.75,24L143.75,0L156.25,0L156.25,0L168.75,0L168.75,0L181.25,0L181.25,0L193.75,0L193.75,0L206.25,0L206.25,0L218.75,0L218.75,0L231.25,0L231.25,0L243.75,0L243.75,0L256.25,0L256.25,0L268.75,0L268.75,0L281.25,0L281.25,0L293.75,0L293.75,0L300,0" stroke="#4c78a8" stroke-width="2"/></g></g><path class="foreground" aria-hidden="true" d="" display="none"/></g><g transform="translate(0,0)"><path class="background" aria-hidden="true" d="M0,0h300v200h-300Z"/><g><g class="mark-line role-mark layer_0_marks" role="graphics-object" aria-roledescription="line mark container"><path aria-label="Incubation period (days): 0.5; Cumulative distribution: 0; 年齡str: 18-49 [45]" role="graphics-symbol" aria-roledescription="line mark" d="M12.5,200L18.75,200L18.75,200L31.25,200L31.25,200L43.75,200L43.75,192L56.25,192L56.25,160L68.75,160L68.75,112L81.25,112L81.25,62L93.75,62L93.75,32L106.25,32L106.25,14L118.75,14L118.75,8L131.25,8L131.25,4L143.75,4L143.75,0L156.25,0L156.25,0L168.75,0L168.75,0L181.25,0L181.25,0L193.75,0L193.75,0L206.25,0L206.25,0L218.75,0L218.75,0L231.25,0L231.25,0L243.75,0L243.75,0L256.25,0L256.25,0L268.75,0L268.75,0L281.25,0L281.25,0L293.75,0L293.75,0L300,0" stroke="#f58518" stroke-width="2"/></g></g><path class="foreground" aria-hidden="true" d="" display="none"/></g><g transform="translate(0,0)"><path class="background" aria-hidden="true" d="M0,0h300v200h-300Z"/><g><g class="mark-line role-mark layer_0_marks" role="graphics-object" aria-roledescription="line mark container"><path aria-label="Incubation period (days): 0.5; Cumulative distribution: 0; 年齡str: 50+ [16]" role="graphics-symbol" aria-roledescription="line mark" d="M12.5,200L18.75,200L18.75,200L31.25,200L31.25,188L43.75,188L43.75,162L56.25,162L56.25,124L68.75,124L68.75,100L81.25,100L81.25,76L93.75,76L93.75,50L106.25,50L106.25,38L118.75,38L118.75,38L131.25,38L131.25,24L143.75,24L143.75,24L156.25,24L156.25,12L168.75,12L168.75,12L181.25,12L181.25,0L193.75,0L193.75,0L206.25,0L206.25,0L218.75,0L218.75,0L231.25,0L231.25,0L243.75,0L243.75,0L256.25,0L256.25,0L268.75,0L268.75,0L281.25,0L281.25,0L293.75,0L293.75,0L300,0" stroke="#e45756" stroke-width="2"/></g></g><path class="foreground" aria-hidden="true" d="" display="none"/></g></g><g class="mark-group role-scope layer_1_pathgroup" role="graphics-object" aria-roledescription="group mark container"><g transform="translate(0,0)"><path class="background" aria-hidden="true" d="M0,0h300v200h-300Z"/><g><g class="mark-line role-mark layer_1_marks" role="graphics-object" aria-roledescription="line mark container"><path aria-label="Incubation period (days): 0.5; lower: 0; 年齡str: 0-17 [8]" role="graphics-symbol" aria-roledescription="line mark" d="M12.5,200L18.75,200L18.75,200L31.25,200L31.25,200L43.75,200L43.75,200L56.25,200L56.25,200L68.75,200L68.75,176L81.25,176L81.25,150L93.75,150L93.75,100L106.25,100L106.25,76L118.75,76L118.75,76L131.25,76L131.25,50L143.75,50L143.75,50L156.25,50L156.25,24L168.75,24L168.75,0L181.25,0L181.25,0L193.75,0L193.75,0L206.25,0L206.25,0L218.75,0L218.75,0L231.25,0L231.25,0L243.75,0L243.75,0L256.25,0L256.25,0L268.75,0L268.75,0L281.25,0L281.25,0L293.75,0L293.75,0L300,0" stroke="#4c78a8" stroke-width="0.3" stroke-dasharray="4,3"/></g></g><path class="foreground" aria-hidden="true" d="" display="none"/></g><g transform="translate(0,0)"><path class="background" aria-hidden="true" d="M0,0h300v200h-300Z"/><g><g class="mark-line role-mark layer_1_marks" role="graphics-object" aria-roledescription="line mark container"><path aria-label="Incubation period (days): 0.5; lower: 0; 年齡str: 18-49 [45]" role="graphics-symbol" aria-roledescription="line mark" d="M12.5,200L18.75,200L18.75,200L31.25,200L31.25,200L43.75,200L43.75,200L56.25,200L56.25,192L68.75,192L68.75,152L81.25,152L81.25,98L93.75,98L93.75,58L106.25,58L106.25,36L118.75,36L118.75,22L131.25,22L131.25,14L143.75,14L143.75,8L156.25,8L156.25,4L168.75,4L168.75,0L181.25,0L181.25,0L193.75,0L193.75,0L206.25,0L206.25,0L218.75,0L218.75,0L231.25,0L231.25,0L243.75,0L243.75,0L256.25,0L256.25,0L268.75,0L268.75,0L281.25,0L281.25,0L293.75,0L293.75,0L300,0" stroke="#f58518" stroke-width="0.3" stroke-dasharray="4,3"/></g></g><path class="foreground" aria-hidden="true" d="" display="none"/></g><g transform="translate(0,0)"><path class="background" aria-hidden="true" d="M0,0h300v200h-300Z"/><g><g class="mark-line role-mark layer_1_marks" role="graphics-object" aria-roledescription="line mark container"><path aria-label="Incubation period (days): 0.5; lower: 0; 年齡str: 50+ [16]" role="graphics-symbol" aria-roledescription="line mark" d="M12.5,200L18.75,200L18.75,200L31.25,200L31.25,200L43.75,200L43.75,200L56.25,200L56.25,188L68.75,188L68.75,162L81.25,162L81.25,138L93.75,138L93.75,112L106.25,112L106.25,88L118.75,88L118.75,76L131.25,76L131.25,62L143.75,62L143.75,50L156.25,50L156.25,38L168.75,38L168.75,38L181.25,38L181.25,24L193.75,24L193.75,24L206.25,24L206.25,24L218.75,24L218.75,12L231.25,12L231.25,12L243.75,12L243.75,12L256.25,12L256.25,12L268.75,12L268.75,0L281.25,0L281.25,0L293.75,0L293.75,0L300,0" stroke="#e45756" stroke-width="0.3" stroke-dasharray="4,3"/></g></g><path class="foreground" aria-hidden="true" d="" display="none"/></g></g><g class="mark-group role-scope layer_2_pathgroup" role="graphics-object" aria-roledescription="group mark container"><g transform="translate(0,0)"><path class="background" aria-hidden="true" d="M0,0h300v200h-300Z"/><g><g class="mark-line role-mark layer_2_marks" role="graphics-object" aria-roledescription="line mark container"><path aria-label="Incubation period (days): 0.5; upper: 0.12; 年齡str: 0-17 [8]" role="graphics-symbol" aria-roledescription="line mark" d="M12.5,176L18.75,176L18.75,124L31.25,124L31.25,100L43.75,100L43.75,50L56.25,50L56.25,24L68.75,24L68.75,24L81.25,24L81.25,24L93.75,24L93.75,24L106.25,24L106.25,24L118.75,24L118.75,24L131.25,24L131.25,0L143.75,0L143.75,0L156.25,0L156.25,0L168.75,0L168.75,0L181.25,0L181.25,0L193.75,0L193.75,0L206.25,0L206.25,0L218.75,0L218.75,0L231.25,0L231.25,0L243.75,0L243.75,0L256.25,0L256.25,0L268.75,0L268.75,0L281.25,0L281.25,0L293.75,0L293.75,0L300,0" stroke="#4c78a8" stroke-width="0.3" stroke-dasharray="4,3"/></g></g><path class="foreground" aria-hidden="true" d="" display="none"/></g><g transform="translate(0,0)"><path class="background" aria-hidden="true" d="M0,0h300v200h-300Z"/><g><g class="mark-line role-mark layer_2_marks" role="graphics-object" aria-roledescription="line mark container"><path aria-label="Incubation period (days): 0.5; upper: 0; 年齡str: 18-49 [45]" role="graphics-symbol" aria-roledescription="line mark" d="M12.5,200L18.75,200L18.75,196L31.25,196L31.25,186L43.75,186L43.75,160L56.25,160L56.25,120L68.75,120L68.75,72L81.25,72L81.25,36L93.75,36L93.75,14L106.25,14L106.25,4L118.75,4L118.75,4L131.25,4L131.25,0L143.75,0L143.75,0L156.25,0L156.25,0L168.75,0L168.75,0L181.25,0L181.25,0L193.75,0L193.75,0L206.25,0L206.25,0L218.75,0L218.75,0L231.25,0L231.25,0L243.75,0L243.75,0L256.25,0L256.25,0L268.75,0L268.75,0L281.25,0L281.25,0L293.75,0L293.75,0L300,0" stroke="#f58518" stroke-width="0.3" stroke-dasharray="4,3"/></g></g><path class="foreground" aria-hidden="true" d="" display="none"/></g><g transform="translate(0,0)"><path class="background" aria-hidden="true" d="M0,0h300v200h-300Z"/><g><g class="mark-line role-mark layer_2_marks" role="graphics-object" aria-roledescription="line mark container"><path aria-label="Incubation period (days): 0.5; upper: 0.06; 年齡str: 50+ [16]" role="graphics-symbol" aria-roledescription="line mark" d="M12.5,188L18.75,188L18.75,162L31.25,162L31.25,124L43.75,124L43.75,100L56.25,100L56.25,62L68.75,62L68.75,50L81.25,50L81.25,38L93.75,38L93.75,24L106.25,24L106.25,24L118.75,24L118.75,24L131.25,24L131.25,12L143.75,12L143.75,0L156.25,0L156.25,0L168.75,0L168.75,0L181.25,0L181.25,0L193.75,0L193.75,0L206.25,0L206.25,0L218.75,0L218.75,0L231.25,0L231.25,0L243.75,0L243.75,0L256.25,0L256.25,0L268.75,0L268.75,0L281.25,0L281.25,0L293.75,0L293.75,0L300,0" stroke="#e45756" stroke-width="0.3" stroke-dasharray="4,3"/></g></g><path class="foreground" aria-hidden="true" d="" display="none"/></g></g><g class="mark-group role-scope layer_3_pathgroup" role="graphics-object" aria-roledescription="group mark container"><g transform="translate(0,0)"><path class="background" aria-hidden="true" d="M0,0h300v200h-300Z"/><g><g class="mark-area role-mark layer_3_marks" clip-path="url(#clip14)" role="graphics-object" aria-roledescription="area mark container"><path aria-label="Incubation period (days): 0.5; lower: 0; upper: 0.12; 年齡str: 0-17 [8]" role="graphics-symbol" aria-roledescription="area mark" d="M12.5,200L18.75,200L18.75,200L31.25,200L31.25,200L43.75,200L43.75,200L56.25,200L56.25,200L68.75,200L68.75,176L81.25,176L81.25,150L93.75,150L93.75,100L106.25,100L106.25,76L118.75,76L118.75,76L131.25,76L131.25,50L143.75,50L143.75,50L156.25,50L156.25,24L168.75,24L168.75,0L181.25,0L181.25,0L193.75,0L193.75,0L206.25,0L206.25,0L218.75,0L218.75,0L231.25,0L231.25,0L243.75,0L243.75,0L256.25,0L256.25,0L268.75,0L268.75,0L281.25,0L281.25,0L293.75,0L293.75,0L300,0L300,0L293.75,0L293.75,0L281.25,0L281.25,0L268.75,0L268.75,0L256.25,0L256.25,0L243.75,0L243.75,0L231.25,0L231.25,0L218.75,0L218.75,0L206.25,0L206.25,0L193.75,0L193.75,0L181.25,0L181.25,0L168.75,0L168.75,0L156.25,0L156.25,0L143.75,0L143.75,0L131.25,0L131.25,24L118.75,24L118.75,24L106.25,24L106.25,24L93.75,24L93.75,24L81.25,24L81.25,24L68.75,24L68.75,24L56.25,24L56.25,50L43.75,50L43.75,100L31.25,100L31.25,124L18.75,124L18.75,176L12.5,176Z" fill="#4c78a8" opacity="0.2"/></g></g><path class="foreground" aria-hidden="true" d="" display="none"/></g><g transform="translate(0,0)"><path class="background" aria-hidden="true" d="M0,0h300v200h-300Z"/><g><g class="mark-area role-mark layer_3_marks" clip-path="url(#clip15)" role="graphics-object" aria-roledescription="area mark container"><path aria-label="Incubation period (days): 0.5; lower: 0; upper: 0; 年齡str: 18-49 [45]" role="graphics-symbol" aria-roledescription="area mark" d="M12.5,200L18.75,200L18.75,200L31.25,200L31.25,200L43.75,200L43.75,200L56.25,200L56.25,192L68.75,192L68.75,152L81.25,152L81.25,98L93.75,98L93.75,58L106.25,58L106.25,36L118.75,36L118.75,22L131.25,22L131.25,14L143.75,14L143.75,8L156.25,8L156.25,4L168.75,4L168.75,0L181.25,0L181.25,0L193.75,0L193.75,0L206.25,0L206.25,0L218.75,0L218.75,0L231.25,0L231.25,0L243.75,0L243.75,0L256.25,0L256.25,0L268.75,0L268.75,0L281.25,0L281.25,0L293.75,0L293.75,0L300,0L300,0L293.75,0L293.75,0L281.25,0L281.25,0L268.75,0L268.75,0L256.25,0L256.25,0L243.75,0L243.75,0L231.25,0L231.25,0L218.75,0L218.75,0L206.25,0L206.25,0L193.75,0L193.75,0L181.25,0L181.25,0L168.75,0L168.75,0L156.25,0L156.25,0L143.75,0L143.75,0L131.25,0L131.25,4L118.75,4L118.75,4L106.25,4L106.25,14L93.75,14L93.75,36L81.25,36L81.25,72L68.75,72L68.75,120L56.25,120L56.25,160L43.75,160L43.75,186L31.25,186L31.25,196L18.75,196L18.75,200L12.5,200Z" fill="#f58518" opacity="0.2"/></g></g><path class="foreground" aria-hidden="true" d="" display="none"/></g><g transform="translate(0,0)"><path class="background" aria-hidden="true" d="M0,0h300v200h-300Z"/><g><g class="mark-area role-mark layer_3_marks" clip-path="url(#clip16)" role="graphics-object" aria-roledescription="area mark container"><path aria-label="Incubation period (days): 0.5; lower: 0; upper: 0.06; 年齡str: 50+ [16]" role="graphics-symbol" aria-roledescription="area mark" d="M12.5,200L18.75,200L18.75,200L31.25,200L31.25,200L43.75,200L43.75,200L56.25,200L56.25,188L68.75,188L68.75,162L81.25,162L81.25,138L93.75,138L93.75,112L106.25,112L106.25,88L118.75,88L118.75,76L131.25,76L131.25,62L143.75,62L143.75,50L156.25,50L156.25,38L168.75,38L168.75,38L181.25,38L181.25,24L193.75,24L193.75,24L206.25,24L206.25,24L218.75,24L218.75,12L231.25,12L231.25,12L243.75,12L243.75,12L256.25,12L256.25,12L268.75,12L268.75,0L281.25,0L281.25,0L293.75,0L293.75,0L300,0L300,0L293.75,0L293.75,0L281.25,0L281.25,0L268.75,0L268.75,0L256.25,0L256.25,0L243.75,0L243.75,0L231.25,0L231.25,0L218.75,0L218.75,0L206.25,0L206.25,0L193.75,0L193.75,0L181.25,0L181.25,0L168.75,0L168.75,0L156.25,0L156.25,0L143.75,0L143.75,12L131.25,12L131.25,24L118.75,24L118.75,24L106.25,24L106.25,24L93.75,24L93.75,38L81.25,38L81.25,50L68.75,50L68.75,62L56.25,62L56.25,100L43.75,100L43.75,124L31.25,124L31.25,162L18.75,162L18.75,188L12.5,188Z" fill="#e45756" opacity="0.2"/></g></g><path class="foreground" aria-hidden="true" d="" display="none"/></g></g><g class="mark-group role-legend" role="graphics-symbol" aria-roledescription="legend" aria-label="Symbol legend titled 'Age [# cases]' for fill color and stroke color with 3 values: 0-17 [8], 18-49 [45], 50+ [16]"><g transform="translate(220,40)"><path class="background" aria-hidden="true" d="M0,0h71v61h-71Z" pointer-events="none"/><g><g class="mark-group role-legend-entry"><g transform="translate(4,16)"><path class="background" aria-hidden="true" d="M0,0h0v0h0Z" pointer-events="none"/><g><g class="mark-group role-scope" role="graphics-object" aria-roledescription="group mark container"><g transform="translate(0,0)"><path class="background" aria-hidden="true" d="M0,0h61.0341796875v12.5h-61.0341796875Z" pointer-events="none" opacity="1"/><g><g class="mark-symbol role-legend-symbol" pointer-events="none"><path transform="translate(6,6)" d="M5,0A5,5,0,1,1,-5,0A5,5,0,1,1,5,0" fill="#4c78a8" stroke="#4c78a8" stroke-width="1.5" opacity="0.2"/></g><g class="mark-text role-legend-label" pointer-events="none"><text text-anchor="start" transform="translate(16,9)" font-family="sans-serif" font-size="10px" fill="#000" opacity="1">0-17 [8]</text></g></g><path class="foreground" aria-hidden="true" d="" pointer-events="none" display="none"/></g><g transform="translate(0,16)"><path class="background" aria-hidden="true" d="M0,0h61.0341796875v12.5h-61.0341796875Z" pointer-events="none" opacity="1"/><g><g class="mark-symbol role-legend-symbol" pointer-events="none"><path transform="translate(6,6)" d="M5,0A5,5,0,1,1,-5,0A5,5,0,1,1,5,0" fill="#f58518" stroke="#f58518" stroke-width="1.5" opacity="0.2"/></g><g class="mark-text role-legend-label" pointer-events="none"><text text-anchor="start" transform="translate(16,9)" font-family="sans-serif" font-size="10px" fill="#000" opacity="1">18-49 [45]</text></g></g><path class="foreground" aria-hidden="true" d="" pointer-events="none" display="none"/></g><g transform="translate(0,32)"><path class="background" aria-hidden="true" d="M0,0h61.0341796875v12.5h-61.0341796875Z" pointer-events="none" opacity="1"/><g><g class="mark-symbol role-legend-symbol" pointer-events="none"><path transform="translate(6,6)" d="M5,0A5,5,0,1,1,-5,0A5,5,0,1,1,5,0" fill="#e45756" stroke="#e45756" stroke-width="1.5" opacity="0.2"/></g><g class="mark-text role-legend-label" pointer-events="none"><text text-anchor="start" transform="translate(16,9)" font-family="sans-serif" font-size="10px" fill="#000" opacity="1">50+ [16]</text></g></g><path class="foreground" aria-hidden="true" d="" pointer-events="none" display="none"/></g></g></g><path class="foreground" aria-hidden="true" d="" pointer-events="none" display="none"/></g></g><g class="mark-text role-legend-title" pointer-events="none"><text text-anchor="middle" transform="translate(35,9)" font-family="sans-serif" font-size="11px" font-weight="bold" fill="#000" opacity="1">Age [# cases]</text></g></g><path class="foreground" aria-hidden="true" d="" pointer-events="none" display="none"/></g></g></g><path class="foreground" aria-hidden="true" d="" display="none"/></g></g></g><defs><clipPath id="clip14"><rect x="0" y="0" width="300" height="200"/></clipPath><clipPath id="clip15"><rect x="0" y="0" width="300" height="200"/></clipPath><clipPath id="clip16"><rect x="0" y="0" width="300" height="200"/></clipPath></defs></svg>